<svg version="1.1" xmlns="http://www.w3.org/2000/svg" xmlns:xlink="http://www.w3.org/1999/xlink" width="2692" height="1661"><defs/>
	<g transform="translate(-46,-22) scale(1,1)"><g><path fill="none" stroke="none"/><text fill="#000000" stroke="none" font-family="Arial" font-size="18px" font-style="normal" font-weight="normal" text-decoration="none" x="1479" y="1059.5">Execute Step</text>
		<text fill="#000000" stroke="none" font-family="Arial" font-size="18px" font-style="normal" font-weight="normal" text-decoration="none" x="1491.5" y="1078">Command</text></g></g><g transform="translate(-46,-22) scale(1,1)"><path fill="none" stroke="#000000" d="M 1532 1091 L 1532 1184 M 1532 1184 A 8 8 0 0 0 1540 1192 L 1720 1192 M 1720 1192 A 8 8 0 0 1 1728 1200 L 1728 1240" stroke-miterlimit="10"/></g><g transform="translate(-46,-22) scale(1,1)"><path fill="#000000" stroke="none" d="M 1723.7904822439841 1229.837325142376 L 1728 1240 L 1732.2095177560159 1229.837325142376"/></g><g transform="translate(-46,-22) scale(1,1)"><path fill="none" stroke="#000000" d="M 1723.7904822439841 1229.837325142376 L 1728 1240 L 1732.2095177560159 1229.837325142376 L 1723.7904822439841 1229.837325142376" stroke-miterlimit="10"/></g><g transform="translate(-46,-22) scale(1,1)"><rect fill="#aaaaaa" stroke="none" x="129" y="40" width="112" height="40"/></g><g transform="translate(-46,-22) scale(1,1)"><path fill="none" stroke="#000000" d="M 129 40 L 241 40 L 241 80 L 129 80 L 129 40 Z Z" stroke-miterlimit="10"/></g><g transform="translate(-46,-22) scale(1,1)"><g><path fill="none" stroke="none"/><text fill="#000000" stroke="none" font-family="Arial" font-size="18px" font-style="normal" font-weight="normal" text-decoration="none" x="166" y="64.5">Start</text></g></g><g transform="translate(-46,-22) scale(1,1)"><rect fill="#ffff49" stroke="none" x="352" y="32" width="111" height="73"/></g><g transform="translate(-46,-22) scale(1,1)"><path fill="none" stroke="#000000" d="M 352 32 L 463 32 L 463 105 L 352 105 L 352 32 Z Z" stroke-miterlimit="10"/></g><g transform="translate(-46,-22) scale(1,1)"><g><path fill="none" stroke="none"/><text fill="#000000" stroke="none" font-family="Arial" font-size="18px" font-style="normal" font-weight="normal" text-decoration="none" x="379.5" y="56.5">ESP32</text>
		<text fill="#000000" stroke="none" font-family="Arial" font-size="18px" font-style="normal" font-weight="normal" text-decoration="none" x="384" y="74.5">Setup</text>
		<text fill="#000000" stroke="none" font-family="Arial" font-size="18px" font-style="normal" font-weight="normal" text-decoration="none" x="361.5" y="93">Initialization</text></g></g><g transform="translate(-46,-22) scale(1,1)"><rect fill="#ffff49" stroke="none" x="344" y="288" width="120" height="73"/></g><g transform="translate(-46,-22) scale(1,1)"><path fill="none" stroke="#000000" d="M 344 288 L 464 288 L 464 361 L 344 361 L 344 288 Z Z" stroke-miterlimit="10"/></g><g transform="translate(-46,-22) scale(1,1)"><g><path fill="none" stroke="none"/><text fill="#000000" stroke="none" font-family="Arial" font-size="18px" font-style="normal" font-weight="normal" text-decoration="none" x="381.5" y="313">Other</text>
		<text fill="#000000" stroke="none" font-family="Arial" font-size="18px" font-style="normal" font-weight="normal" text-decoration="none" x="362.5" y="331">Raspberry</text>
		<text fill="#000000" stroke="none" font-family="Arial" font-size="18px" font-style="normal" font-weight="normal" text-decoration="none" x="353.5" y="349">Initializations</text></g></g><g transform="translate(-46,-22) scale(1,1)"><path fill="none" stroke="#000000" d="M 405 288 L 405 105" stroke-miterlimit="10"/></g><g transform="translate(-46,-22) scale(1,1)"><path fill="#000000" stroke="none" d="M 409.209517756016 115.16267485762415 L 405 105 L 400.790482243984 115.16267485762415"/></g><g transform="translate(-46,-22) scale(1,1)"><path fill="none" stroke="#000000" d="M 409.209517756016 115.16267485762415 L 405 105 L 400.790482243984 115.16267485762415 L 409.209517756016 115.16267485762415" stroke-miterlimit="10"/></g><g transform="translate(-46,-22) scale(1,1)"><path fill="#6dceff" stroke="none" d="M 552 181.5 L 634.5 128 L 717 181.5 L 634.5 235 L 552 181.5"/></g><g transform="translate(-46,-22) scale(1,1)"><path fill="none" stroke="#000000" d="M 552 181.5 L 634.5 128 L 717 181.5 L 634.5 235 L 552 181.5 L 552 181.5" stroke-miterlimit="10"/></g><g transform="translate(-46,-22) scale(1,1)"><g><path fill="none" stroke="none"/><text fill="#000000" stroke="none" font-family="Arial" font-size="18px" font-style="normal" font-weight="normal" text-decoration="none" x="593" y="170">Raspberry</text>
		<text fill="#000000" stroke="none" font-family="Arial" font-size="18px" font-style="normal" font-weight="normal" text-decoration="none" x="602" y="188">Receive</text>
		<text fill="#000000" stroke="none" font-family="Arial" font-size="18px" font-style="normal" font-weight="normal" text-decoration="none" x="594" y="206">Command</text></g></g><g transform="translate(-46,-22) scale(1,1)"><path fill="none" stroke="#000000" d="M 463 64 L 624 64 M 624 64 A 8 8 0 0 1 632 72 L 632 128" stroke-miterlimit="10"/></g><g transform="translate(-46,-22) scale(1,1)"><path fill="#000000" stroke="none" d="M 627.790482243984 117.83732514237585 L 632 128 L 636.209517756016 117.83732514237585"/></g><g transform="translate(-46,-22) scale(1,1)"><path fill="none" stroke="#000000" d="M 627.790482243984 117.83732514237585 L 632 128 L 636.209517756016 117.83732514237585 L 627.790482243984 117.83732514237585" stroke-miterlimit="10"/></g><g transform="translate(-46,-22) scale(1,1)"><path fill="#6dceff" stroke="none" d="M 1288 274 L 1368.5 226 L 1449 274 L 1368.5 322 L 1288 274"/></g><g transform="translate(-46,-22) scale(1,1)"><path fill="none" stroke="#000000" d="M 1288 274 L 1368.5 226 L 1449 274 L 1368.5 322 L 1288 274 L 1288 274" stroke-miterlimit="10"/></g><g transform="translate(-46,-22) scale(1,1)"><g><path fill="none" stroke="none"/><text fill="#000000" stroke="none" font-family="Arial" font-size="18px" font-style="normal" font-weight="normal" text-decoration="none" x="1328" y="271.5">Command</text>
		<text fill="#000000" stroke="none" font-family="Arial" font-size="18px" font-style="normal" font-weight="normal" text-decoration="none" x="1362" y="289.5">is</text></g></g><g transform="translate(-46,-22) scale(1,1)"><path fill="none" stroke="#000000" d="M 717 176 L 1360 176 M 1360 176 A 8 8 0 0 1 1368 184 L 1368 226" stroke-miterlimit="10"/></g><g transform="translate(-46,-22) scale(1,1)"><path fill="#000000" stroke="none" d="M 1363.7904822439841 215.83732514237585 L 1368 226 L 1372.2095177560159 215.83732514237585"/></g><g transform="translate(-46,-22) scale(1,1)"><path fill="none" stroke="#000000" d="M 1363.7904822439841 215.83732514237585 L 1368 226 L 1372.2095177560159 215.83732514237585 L 1363.7904822439841 215.83732514237585" stroke-miterlimit="10"/></g><g transform="translate(-46,-22) scale(1,1)"><g><path fill="none" stroke="none"/><text fill="#000000" stroke="none" font-family="Arial" font-size="18px" font-style="normal" font-weight="normal" text-decoration="none" x="703.5" y="161.5">Yes</text></g></g><g transform="translate(-46,-22) scale(1,1)"><path fill="none" stroke="#000000" d="M 632 235 L 632 264 L 512 264 L 512 180 L 552 180" stroke-miterlimit="10"/></g><g transform="translate(-46,-22) scale(1,1)"><path fill="#000000" stroke="none" d="M 541.8373251423759 184.209517756016 L 552 180 L 541.8373251423758 175.790482243984"/></g><g transform="translate(-46,-22) scale(1,1)"><path fill="none" stroke="#000000" d="M 541.8373251423759 184.209517756016 L 552 180 L 541.8373251423758 175.790482243984 L 541.8373251423759 184.209517756016" stroke-miterlimit="10"/></g><g transform="translate(-46,-22) scale(1,1)"><g><path fill="none" stroke="none"/><text fill="#000000" stroke="none" font-family="Arial" font-size="18px" font-style="normal" font-weight="normal" text-decoration="none" x="636" y="252.5">No</text></g></g><g transform="translate(-46,-22) scale(1,1)"><path fill="#6dceff" stroke="none" d="M 109 455.5 L 185.5 384 L 262 455.5 L 185.5 527 L 109 455.5"/></g><g transform="translate(-46,-22) scale(1,1)"><path fill="none" stroke="#000000" d="M 109 455.5 L 185.5 384 L 262 455.5 L 185.5 527 L 109 455.5 L 109 455.5" stroke-miterlimit="10"/></g><g transform="translate(-46,-22) scale(1,1)"><g><path fill="none" stroke="none"/><text fill="#000000" stroke="none" font-family="Arial" font-size="18px" font-style="normal" font-weight="normal" text-decoration="none" x="159" y="444">Mobile</text>
		<text fill="#000000" stroke="none" font-family="Arial" font-size="18px" font-style="normal" font-weight="normal" text-decoration="none" x="150.5" y="462">Phone is</text>
		<text fill="#000000" stroke="none" font-family="Arial" font-size="18px" font-style="normal" font-weight="normal" text-decoration="none" x="147" y="480">Conected</text></g></g><g transform="translate(-46,-22) scale(1,1)"><rect fill="#ffff49" stroke="none" x="105" y="200" width="160" height="91"/></g><g transform="translate(-46,-22) scale(1,1)"><path fill="none" stroke="#000000" d="M 105 200 L 265 200 L 265 291 L 105 291 L 105 200 Z Z" stroke-miterlimit="10"/></g><g transform="translate(-46,-22) scale(1,1)"><g><path fill="none" stroke="none"/><text fill="#000000" stroke="none" font-family="Arial" font-size="18px" font-style="normal" font-weight="normal" text-decoration="none" x="153.5" y="225">Initialize</text>
		<text fill="#000000" stroke="none" font-family="Arial" font-size="18px" font-style="normal" font-weight="normal" text-decoration="none" x="143.5" y="243">Raspberry</text>
		<text fill="#000000" stroke="none" font-family="Arial" font-size="18px" font-style="normal" font-weight="normal" text-decoration="none" x="147" y="261">Bluetooth</text>
		<text fill="#000000" stroke="none" font-family="Arial" font-size="18px" font-style="normal" font-weight="normal" text-decoration="none" x="123.5" y="279">Communication</text></g></g><g transform="translate(-46,-22) scale(1,1)"><path fill="none" stroke="#000000" d="M 184 80 L 184 200" stroke-miterlimit="10"/></g><g transform="translate(-46,-22) scale(1,1)"><path fill="#000000" stroke="none" d="M 179.790482243984 189.83732514237585 L 184 200 L 188.209517756016 189.83732514237585"/></g><g transform="translate(-46,-22) scale(1,1)"><path fill="none" stroke="#000000" d="M 179.790482243984 189.83732514237585 L 184 200 L 188.209517756016 189.83732514237585 L 179.790482243984 189.83732514237585" stroke-miterlimit="10"/></g><g transform="translate(-46,-22) scale(1,1)"><path fill="none" stroke="#000000" d="M 184 291 L 184 384" stroke-miterlimit="10"/></g><g transform="translate(-46,-22) scale(1,1)"><path fill="#000000" stroke="none" d="M 179.790482243984 373.83732514237585 L 184 384 L 188.209517756016 373.83732514237585"/></g><g transform="translate(-46,-22) scale(1,1)"><path fill="none" stroke="#000000" d="M 179.790482243984 373.83732514237585 L 184 384 L 188.209517756016 373.83732514237585 L 179.790482243984 373.83732514237585" stroke-miterlimit="10"/></g><g transform="translate(-46,-22) scale(1,1)"><path fill="none" stroke="#000000" d="M 184 527 L 184 560 L 80 560 L 80 456 L 109 456" stroke-miterlimit="10"/></g><g transform="translate(-46,-22) scale(1,1)"><path fill="#000000" stroke="none" d="M 98.83732514237585 460.209517756016 L 109 456 L 98.83732514237585 451.790482243984"/></g><g transform="translate(-46,-22) scale(1,1)"><path fill="none" stroke="#000000" d="M 98.83732514237585 460.209517756016 L 109 456 L 98.83732514237585 451.790482243984 L 98.83732514237585 460.209517756016" stroke-miterlimit="10"/></g><g transform="translate(-46,-22) scale(1,1)"><g><path fill="none" stroke="none"/><text fill="#000000" stroke="none" font-family="Arial" font-size="18px" font-style="normal" font-weight="normal" text-decoration="none" x="190.5" y="540.5">No</text></g></g><g transform="translate(-46,-22) scale(1,1)"><path fill="none" stroke="#000000" d="M 262 456 L 392 456 M 392 456 A 8 8 0 0 0 400 448 L 400 361" stroke-miterlimit="10"/></g><g transform="translate(-46,-22) scale(1,1)"><path fill="#000000" stroke="none" d="M 404.209517756016 371.16267485762415 L 400 361 L 395.790482243984 371.16267485762415"/></g><g transform="translate(-46,-22) scale(1,1)"><path fill="none" stroke="#000000" d="M 404.209517756016 371.16267485762415 L 400 361 L 395.790482243984 371.16267485762415 L 404.209517756016 371.16267485762415" stroke-miterlimit="10"/></g><g transform="translate(-46,-22) scale(1,1)"><g><path fill="none" stroke="none"/><text fill="#000000" stroke="none" font-family="Arial" font-size="18px" font-style="normal" font-weight="normal" text-decoration="none" x="260.5" y="444.5">Yes</text></g></g><g transform="translate(-46,-22) scale(1,1)"><rect fill="#ffff49" stroke="none" x="728" y="328" width="126" height="73"/></g><g transform="translate(-46,-22) scale(1,1)"><path fill="none" stroke="#000000" d="M 728 328 L 854 328 L 854 401 L 728 401 L 728 328 Z Z" stroke-miterlimit="10"/></g><g transform="translate(-46,-22) scale(1,1)"><g><path fill="none" stroke="none"/><text fill="#000000" stroke="none" font-family="Arial" font-size="18px" font-style="normal" font-weight="normal" text-decoration="none" x="759.5" y="353">Initialize</text>
		<text fill="#000000" stroke="none" font-family="Arial" font-size="18px" font-style="normal" font-weight="normal" text-decoration="none" x="750" y="371">Recording</text>
		<text fill="#000000" stroke="none" font-family="Arial" font-size="18px" font-style="normal" font-weight="normal" text-decoration="none" x="737.5" y="389">Configuration</text></g></g><g transform="translate(-46,-22) scale(1,1)"><path fill="#6dceff" stroke="none" d="M 728 781.5 L 794.5 728 L 861 781.5 L 794.5 835 L 728 781.5"/></g><g transform="translate(-46,-22) scale(1,1)"><path fill="none" stroke="#000000" d="M 728 781.5 L 794.5 728 L 861 781.5 L 794.5 835 L 728 781.5 L 728 781.5" stroke-miterlimit="10"/></g><g transform="translate(-46,-22) scale(1,1)"><g><path fill="none" stroke="none"/><text fill="#000000" stroke="none" font-family="Arial" font-size="18px" font-style="normal" font-weight="normal" text-decoration="none" x="770" y="770">Action</text>
		<text fill="#000000" stroke="none" font-family="Arial" font-size="18px" font-style="normal" font-weight="normal" text-decoration="none" x="761" y="788">Comand</text>
		<text fill="#000000" stroke="none" font-family="Arial" font-size="18px" font-style="normal" font-weight="normal" text-decoration="none" x="788" y="806">is</text></g></g><g transform="translate(-46,-22) scale(1,1)"><path fill="#6dceff" stroke="none" d="M 392 877.5 L 456.5 824 L 521 877.5 L 456.5 931 L 392 877.5"/></g><g transform="translate(-46,-22) scale(1,1)"><path fill="none" stroke="#000000" d="M 392 877.5 L 456.5 824 L 521 877.5 L 456.5 931 L 392 877.5 L 392 877.5" stroke-miterlimit="10"/></g><g transform="translate(-46,-22) scale(1,1)"><g><path fill="none" stroke="none"/><text fill="#000000" stroke="none" font-family="Arial" font-size="18px" font-style="normal" font-weight="normal" text-decoration="none" x="434.5" y="865.5">Move</text>
		<text fill="#000000" stroke="none" font-family="Arial" font-size="18px" font-style="normal" font-weight="normal" text-decoration="none" x="432" y="884">Action</text>
		<text fill="#000000" stroke="none" font-family="Arial" font-size="18px" font-style="normal" font-weight="normal" text-decoration="none" x="450" y="902">is</text></g></g><g transform="translate(-46,-22) scale(1,1)"><path fill="none" stroke="#000000" d="M 728 784 L 464 784 M 464 784 A 8 8 0 0 0 456 792 L 456 824" stroke-miterlimit="10"/></g><g transform="translate(-46,-22) scale(1,1)"><path fill="#000000" stroke="none" d="M 451.790482243984 813.8373251423759 L 456 824 L 460.209517756016 813.8373251423759"/></g><g transform="translate(-46,-22) scale(1,1)"><path fill="none" stroke="#000000" d="M 451.790482243984 813.8373251423759 L 456 824 L 460.209517756016 813.8373251423759 L 451.790482243984 813.8373251423759" stroke-miterlimit="10"/></g><g transform="translate(-46,-22) scale(1,1)"><g><path fill="none" stroke="none"/><text fill="#000000" stroke="none" font-family="Arial" font-size="18px" font-style="normal" font-weight="normal" text-decoration="none" x="683.5" y="772.5">Move</text></g></g><g transform="translate(-46,-22) scale(1,1)"><path fill="none" stroke="#000000" d="M 392 880 L 216 880 M 216 880 A 8 8 0 0 0 208 888 L 208 976" stroke-miterlimit="10"/></g><g transform="translate(-46,-22) scale(1,1)"><path fill="#000000" stroke="none" d="M 203.790482243984 965.8373251423759 L 208 976 L 212.209517756016 965.8373251423759"/></g><g transform="translate(-46,-22) scale(1,1)"><path fill="none" stroke="#000000" d="M 203.790482243984 965.8373251423759 L 208 976 L 212.209517756016 965.8373251423759 L 203.790482243984 965.8373251423759" stroke-miterlimit="10"/></g><g transform="translate(-46,-22) scale(1,1)"><g><path fill="none" stroke="none"/><text fill="#000000" stroke="none" font-family="Arial" font-size="18px" font-style="normal" font-weight="normal" text-decoration="none" x="310" y="870">Turn Left</text></g></g><g transform="translate(-46,-22) scale(1,1)"><path fill="none" stroke="#000000" d="M 456 931 L 456 977" stroke-miterlimit="10"/></g><g transform="translate(-46,-22) scale(1,1)"><path fill="#000000" stroke="none" d="M 451.790482243984 966.8373251423759 L 456 977 L 460.209517756016 966.8373251423759"/></g><g transform="translate(-46,-22) scale(1,1)"><path fill="none" stroke="#000000" d="M 451.790482243984 966.8373251423759 L 456 977 L 460.209517756016 966.8373251423759 L 451.790482243984 966.8373251423759" stroke-miterlimit="10"/></g><g transform="translate(-46,-22) scale(1,1)"><g><path fill="none" stroke="none"/><text fill="#000000" stroke="none" font-family="Arial" font-size="18px" font-style="normal" font-weight="normal" text-decoration="none" x="467" y="946">Go forward</text></g></g><g transform="translate(-46,-22) scale(1,1)"><path fill="none" stroke="#000000" d="M 1288 272 L 800 272 M 800 272 A 8 8 0 0 0 792 280 L 792 328" stroke-miterlimit="10"/></g><g transform="translate(-46,-22) scale(1,1)"><path fill="#000000" stroke="none" d="M 787.790482243984 317.83732514237585 L 792 328 L 796.209517756016 317.83732514237585"/></g><g transform="translate(-46,-22) scale(1,1)"><path fill="none" stroke="#000000" d="M 787.790482243984 317.83732514237585 L 792 328 L 796.209517756016 317.83732514237585 L 787.790482243984 317.83732514237585" stroke-miterlimit="10"/></g><g transform="translate(-46,-22) scale(1,1)"><g><path fill="none" stroke="none"/><text fill="#000000" stroke="none" font-family="Arial" font-size="18px" font-style="normal" font-weight="normal" text-decoration="none" x="1191.5" y="260">Record Route</text></g></g><g transform="translate(-46,-22) scale(1,1)"><path fill="#9bff38" stroke="none" d="M 776 488 C 776 479.1634432 783.1634432 472 792 472 C 800.8365568 472 808 479.1634432 808 488 C 808 496.8365568 800.8365568 504 792 504 C 783.1634432 504 776 496.8365568 776 488 Z"/></g><g transform="translate(-46,-22) scale(1,1)"><path fill="none" stroke="#000000" d="M 776 488 C 776 479.1634432 783.1634432 472 792 472 C 800.8365568 472 808 479.1634432 808 488 C 808 496.8365568 800.8365568 504 792 504 C 783.1634432 504 776 496.8365568 776 488 Z" stroke-miterlimit="10"/></g><g transform="translate(-46,-22) scale(1,1)"><g><path fill="none" stroke="none"/></g></g><g transform="translate(-46,-22) scale(1,1)"><path fill="none" stroke="#000000" d="M 791 401 L 791 472" stroke-miterlimit="10"/></g><g transform="translate(-46,-22) scale(1,1)"><path fill="#000000" stroke="none" d="M 786.790482243984 461.83732514237585 L 791 472 L 795.209517756016 461.83732514237585"/></g><g transform="translate(-46,-22) scale(1,1)"><path fill="none" stroke="#000000" d="M 786.790482243984 461.83732514237585 L 791 472 L 795.209517756016 461.83732514237585 L 786.790482243984 461.83732514237585" stroke-miterlimit="10"/></g><g transform="translate(-46,-22) scale(1,1)"><path fill="none" stroke="#000000" d="M 792 504 L 792 728" stroke-miterlimit="10"/></g><g transform="translate(-46,-22) scale(1,1)"><path fill="#000000" stroke="none" d="M 787.790482243984 717.8373251423759 L 792 728 L 796.209517756016 717.8373251423759"/></g><g transform="translate(-46,-22) scale(1,1)"><path fill="none" stroke="#000000" d="M 787.790482243984 717.8373251423759 L 792 728 L 796.209517756016 717.8373251423759 L 787.790482243984 717.8373251423759" stroke-miterlimit="10"/></g><g transform="translate(-46,-22) scale(1,1)"><rect fill="#ffdf82" stroke="none" x="920" y="976" width="136" height="73"/></g><g transform="translate(-46,-22) scale(1,1)"><path fill="none" stroke="#000000" d="M 920 976 L 1056 976 L 1056 1049 L 920 1049 L 920 976 Z Z" stroke-miterlimit="10"/></g><g transform="translate(-46,-22) scale(1,1)"><g><path fill="none" stroke="none"/><text fill="#000000" stroke="none" font-family="Arial" font-size="18px" font-style="normal" font-weight="normal" text-decoration="none" x="930.5" y="1000.5">Camera Servo</text>
		<text fill="#000000" stroke="none" font-family="Arial" font-size="18px" font-style="normal" font-weight="normal" text-decoration="none" x="936" y="1018.5">Motor Rotate</text>
		<text fill="#000000" stroke="none" font-family="Arial" font-size="18px" font-style="normal" font-weight="normal" text-decoration="none" x="934" y="1037">(-90° to +90°)</text></g></g><g transform="translate(-46,-22) scale(1,1)"><rect fill="#ffdf82" stroke="none" x="128" y="976" width="184" height="73"/></g><g transform="translate(-46,-22) scale(1,1)"><path fill="none" stroke="#000000" d="M 128 976 L 312 976 L 312 1049 L 128 1049 L 128 976 Z Z" stroke-miterlimit="10"/></g><g transform="translate(-46,-22) scale(1,1)"><g><path fill="none" stroke="none"/><text fill="#000000" stroke="none" font-family="Arial" font-size="18px" font-style="normal" font-weight="normal" text-decoration="none" x="145" y="1001">Speed Right Motor</text>
		<text fill="#000000" stroke="none" font-family="Arial" font-size="18px" font-style="normal" font-weight="normal" text-decoration="none" x="160.5" y="1019">= V Speed Left</text>
		<text fill="#000000" stroke="none" font-family="Arial" font-size="18px" font-style="normal" font-weight="normal" text-decoration="none" x="178" y="1036.5">Motor = -V</text></g></g><g transform="translate(-46,-22) scale(1,1)"><rect fill="#ffdf82" stroke="none" x="352" y="977" width="208" height="73"/></g><g transform="translate(-46,-22) scale(1,1)"><path fill="none" stroke="#000000" d="M 352 977 L 560 977 L 560 1050 L 352 1050 L 352 977 Z Z" stroke-miterlimit="10"/></g><g transform="translate(-46,-22) scale(1,1)"><g><path fill="none" stroke="none"/><text fill="#000000" stroke="none" font-family="Arial" font-size="18px" font-style="normal" font-weight="normal" text-decoration="none" x="365" y="1002">Speed Right Motor = V</text>
		<text fill="#000000" stroke="none" font-family="Arial" font-size="18px" font-style="normal" font-weight="normal" text-decoration="none" x="371" y="1020">Speed Left Motor = V</text></g></g><g transform="translate(-46,-22) scale(1,1)"><path fill="#ff8282" stroke="none" d="M 1352 446.5 C 1352 438.4918704 1358.4918704 432 1366.5 432 C 1374.5081296 432 1381 438.4918704 1381 446.5 C 1381 454.5081296 1374.5081296 461 1366.5 461 C 1358.4918704 461 1352 454.5081296 1352 446.5 Z"/></g><g transform="translate(-46,-22) scale(1,1)"><path fill="none" stroke="#000000" d="M 1352 446.5 C 1352 438.4918704 1358.4918704 432 1366.5 432 C 1374.5081296 432 1381 438.4918704 1381 446.5 C 1381 454.5081296 1374.5081296 461 1366.5 461 C 1358.4918704 461 1352 454.5081296 1352 446.5 Z" stroke-miterlimit="10"/></g><g transform="translate(-46,-22) scale(1,1)"><g><path fill="none" stroke="none"/></g></g><g transform="translate(-46,-22) scale(1,1)"><path fill="none" stroke="#000000" d="M 1368 432 L 1368 322" stroke-miterlimit="10"/></g><g transform="translate(-46,-22) scale(1,1)"><path fill="#000000" stroke="none" d="M 1372.2095177560159 332.16267485762415 L 1368 322 L 1363.7904822439841 332.16267485762415"/></g><g transform="translate(-46,-22) scale(1,1)"><path fill="none" stroke="#000000" d="M 1372.2095177560159 332.16267485762415 L 1368 322 L 1363.7904822439841 332.16267485762415 L 1372.2095177560159 332.16267485762415" stroke-miterlimit="10"/></g><g transform="translate(-46,-22) scale(1,1)"><rect fill="#ffff49" stroke="none" x="1672" y="242" width="126" height="73"/></g><g transform="translate(-46,-22) scale(1,1)"><path fill="none" stroke="#000000" d="M 1672 242 L 1798 242 L 1798 315 L 1672 315 L 1672 242 Z Z" stroke-miterlimit="10"/></g><g transform="translate(-46,-22) scale(1,1)"><g><path fill="none" stroke="none"/><text fill="#000000" stroke="none" font-family="Arial" font-size="18px" font-style="normal" font-weight="normal" text-decoration="none" x="1703.5" y="267">Initialize</text>
		<text fill="#000000" stroke="none" font-family="Arial" font-size="18px" font-style="normal" font-weight="normal" text-decoration="none" x="1696" y="285">Execution</text>
		<text fill="#000000" stroke="none" font-family="Arial" font-size="18px" font-style="normal" font-weight="normal" text-decoration="none" x="1681.5" y="303">Configuration</text></g></g><g transform="translate(-46,-22) scale(1,1)"><path fill="none" stroke="#000000" d="M 1449 272 L 1672 272" stroke-miterlimit="10"/></g><g transform="translate(-46,-22) scale(1,1)"><path fill="#000000" stroke="none" d="M 1661.837325142376 276.209517756016 L 1672 272 L 1661.837325142376 267.790482243984"/></g><g transform="translate(-46,-22) scale(1,1)"><path fill="none" stroke="#000000" d="M 1661.837325142376 276.209517756016 L 1672 272 L 1661.837325142376 267.790482243984 L 1661.837325142376 276.209517756016" stroke-miterlimit="10"/></g><g transform="translate(-46,-22) scale(1,1)"><g><path fill="none" stroke="none"/><text fill="#000000" stroke="none" font-family="Arial" font-size="18px" font-style="normal" font-weight="normal" text-decoration="none" x="1459.5" y="255.5">Execute Route</text></g></g><g transform="translate(-46,-22) scale(1,1)"><path fill="#9bff38" stroke="none" d="M 2040 430.5 C 2040 422.4918704 2046.4918704 416 2054.5 416 C 2062.5081296 416 2069 422.4918704 2069 430.5 C 2069 438.5081296 2062.5081296 445 2054.5 445 C 2046.4918704 445 2040 438.5081296 2040 430.5 Z"/></g><g transform="translate(-46,-22) scale(1,1)"><path fill="none" stroke="#000000" d="M 2040 430.5 C 2040 422.4918704 2046.4918704 416 2054.5 416 C 2062.5081296 416 2069 422.4918704 2069 430.5 C 2069 438.5081296 2062.5081296 445 2054.5 445 C 2046.4918704 445 2040 438.5081296 2040 430.5 Z" stroke-miterlimit="10"/></g><g transform="translate(-46,-22) scale(1,1)"><g><path fill="none" stroke="none"/></g></g><g transform="translate(-46,-22) scale(1,1)"><rect fill="#ffdf82" stroke="none" x="592" y="976" width="208" height="73"/></g><g transform="translate(-46,-22) scale(1,1)"><path fill="none" stroke="#000000" d="M 592 976 L 800 976 L 800 1049 L 592 1049 L 592 976 Z Z" stroke-miterlimit="10"/></g><g transform="translate(-46,-22) scale(1,1)"><g><path fill="none" stroke="none"/><text fill="#000000" stroke="none" font-family="Arial" font-size="18px" font-style="normal" font-weight="normal" text-decoration="none" x="602" y="1001">Speed Right Motor = -V</text>
		<text fill="#000000" stroke="none" font-family="Arial" font-size="18px" font-style="normal" font-weight="normal" text-decoration="none" x="611" y="1019">Speed Left Motor = V</text></g></g><g transform="translate(-46,-22) scale(1,1)"><path fill="none" stroke="#000000" d="M 521 880 L 696 880 M 696 880 A 8 8 0 0 1 704 888 L 704 976" stroke-miterlimit="10"/></g><g transform="translate(-46,-22) scale(1,1)"><path fill="#000000" stroke="none" d="M 699.790482243984 965.8373251423759 L 704 976 L 708.209517756016 965.8373251423759"/></g><g transform="translate(-46,-22) scale(1,1)"><path fill="none" stroke="#000000" d="M 699.790482243984 965.8373251423759 L 704 976 L 708.209517756016 965.8373251423759 L 699.790482243984 965.8373251423759" stroke-miterlimit="10"/></g><g transform="translate(-46,-22) scale(1,1)"><g><path fill="none" stroke="none"/><text fill="#000000" stroke="none" font-family="Arial" font-size="18px" font-style="normal" font-weight="normal" text-decoration="none" x="526.5" y="869">Turn Right</text></g></g><g transform="translate(-46,-22) scale(1,1)"><path fill="#6dceff" stroke="none" d="M 1904 276 L 2053.5 208 L 2203 276 L 2053.5 344 L 1904 276"/></g><g transform="translate(-46,-22) scale(1,1)"><path fill="none" stroke="#000000" d="M 1904 276 L 2053.5 208 L 2203 276 L 2053.5 344 L 1904 276 L 1904 276" stroke-miterlimit="10"/></g><g transform="translate(-46,-22) scale(1,1)"><g><path fill="none" stroke="none"/><text fill="#000000" stroke="none" font-family="Arial" font-size="18px" font-style="normal" font-weight="normal" text-decoration="none" x="1978.5" y="273.5">Download/Receive</text>
		<text fill="#000000" stroke="none" font-family="Arial" font-size="18px" font-style="normal" font-weight="normal" text-decoration="none" x="1983" y="291.5">Route Information</text></g></g><g transform="translate(-46,-22) scale(1,1)"><path fill="none" stroke="#000000" d="M 1798 272 L 1904 272" stroke-miterlimit="10"/></g><g transform="translate(-46,-22) scale(1,1)"><path fill="#000000" stroke="none" d="M 1893.837325142376 276.209517756016 L 1904 272 L 1893.837325142376 267.790482243984"/></g><g transform="translate(-46,-22) scale(1,1)"><path fill="none" stroke="#000000" d="M 1893.837325142376 276.209517756016 L 1904 272 L 1893.837325142376 267.790482243984 L 1893.837325142376 276.209517756016" stroke-miterlimit="10"/></g><g transform="translate(-46,-22) scale(1,1)"><rect fill="#ffff49" stroke="none" x="1672" y="40" width="126" height="56"/></g><g transform="translate(-46,-22) scale(1,1)"><path fill="none" stroke="#000000" d="M 1672 40 L 1798 40 L 1798 96 L 1672 96 L 1672 40 Z Z" stroke-miterlimit="10"/></g><g transform="translate(-46,-22) scale(1,1)"><g><path fill="none" stroke="none"/><text fill="#000000" stroke="none" font-family="Arial" font-size="18px" font-style="normal" font-weight="normal" text-decoration="none" x="1711.5" y="65">Clean</text>
		<text fill="#000000" stroke="none" font-family="Arial" font-size="18px" font-style="normal" font-weight="normal" text-decoration="none" x="1681.5" y="83">Configuration</text></g></g><g transform="translate(-46,-22) scale(1,1)"><path fill="none" stroke="#000000" d="M 1672 64 L 640 64 M 640 64 A 8 8 0 0 0 632 72 L 632 128" stroke-miterlimit="10"/></g><g transform="translate(-46,-22) scale(1,1)"><path fill="#000000" stroke="none" d="M 627.790482243984 117.83732514237585 L 632 128 L 636.209517756016 117.83732514237585"/></g><g transform="translate(-46,-22) scale(1,1)"><path fill="none" stroke="#000000" d="M 627.790482243984 117.83732514237585 L 632 128 L 636.209517756016 117.83732514237585 L 627.790482243984 117.83732514237585" stroke-miterlimit="10"/></g><g transform="translate(-46,-22) scale(1,1)"><path fill="none" stroke="#000000" d="M 2056 208 L 2056 72 M 2056 72 A 8 8 0 0 0 2048 64 L 1798 64" stroke-miterlimit="10"/></g><g transform="translate(-46,-22) scale(1,1)"><path fill="#000000" stroke="none" d="M 1808.162674857624 59.790482243984016 L 1798 64 L 1808.162674857624 68.20951775601598"/></g><g transform="translate(-46,-22) scale(1,1)"><path fill="none" stroke="#000000" d="M 1808.162674857624 59.790482243984016 L 1798 64 L 1808.162674857624 68.20951775601598 L 1808.162674857624 59.790482243984016" stroke-miterlimit="10"/></g><g transform="translate(-46,-22) scale(1,1)"><g><path fill="none" stroke="none"/><text fill="#000000" stroke="none" font-family="Arial" font-size="18px" font-style="normal" font-weight="normal" text-decoration="none" x="2076.5" y="181">Fail</text></g></g><g transform="translate(-46,-22) scale(1,1)"><path fill="none" stroke="#000000" d="M 2056 344 L 2056 416" stroke-miterlimit="10"/></g><g transform="translate(-46,-22) scale(1,1)"><path fill="#000000" stroke="none" d="M 2051.790482243984 405.83732514237585 L 2056 416 L 2060.209517756016 405.83732514237585"/></g><g transform="translate(-46,-22) scale(1,1)"><path fill="none" stroke="#000000" d="M 2051.790482243984 405.83732514237585 L 2056 416 L 2060.209517756016 405.83732514237585 L 2051.790482243984 405.83732514237585" stroke-miterlimit="10"/></g><g transform="translate(-46,-22) scale(1,1)"><g><path fill="none" stroke="none"/><text fill="#000000" stroke="none" font-family="Arial" font-size="18px" font-style="normal" font-weight="normal" text-decoration="none" x="2069.5" y="357.5">Success</text></g></g><g transform="translate(-46,-22) scale(1,1)"><rect fill="#ffdf82" stroke="none" x="1650" y="712" width="160" height="56"/></g><g transform="translate(-46,-22) scale(1,1)"><path fill="none" stroke="#000000" d="M 1650 712 L 1810 712 L 1810 768 L 1650 768 L 1650 712 Z Z" stroke-miterlimit="10"/></g><g transform="translate(-46,-22) scale(1,1)"><g><path fill="none" stroke="none"/><text fill="#000000" stroke="none" font-family="Arial" font-size="18px" font-style="normal" font-weight="normal" text-decoration="none" x="1684.5" y="737">Load Steps</text>
		<text fill="#000000" stroke="none" font-family="Arial" font-size="18px" font-style="normal" font-weight="normal" text-decoration="none" x="1686" y="755">Information</text></g></g><g transform="translate(-46,-22) scale(1,1)"><path fill="#6dceff" stroke="none" d="M 1647 591.5 L 1730.5 520 L 1814 591.5 L 1730.5 663 L 1647 591.5"/></g><g transform="translate(-46,-22) scale(1,1)"><path fill="none" stroke="#000000" d="M 1647 591.5 L 1730.5 520 L 1814 591.5 L 1730.5 663 L 1647 591.5 L 1647 591.5" stroke-miterlimit="10"/></g><g transform="translate(-46,-22) scale(1,1)"><g><path fill="none" stroke="none"/><text fill="#000000" stroke="none" font-family="Arial" font-size="18px" font-style="normal" font-weight="normal" text-decoration="none" x="1688.5" y="571">Recognize</text>
		<text fill="#000000" stroke="none" font-family="Arial" font-size="18px" font-style="normal" font-weight="normal" text-decoration="none" x="1713" y="589">First</text>
		<text fill="#000000" stroke="none" font-family="Arial" font-size="18px" font-style="normal" font-weight="normal" text-decoration="none" x="1707.5" y="606.5">Aruco</text>
		<text fill="#000000" stroke="none" font-family="Arial" font-size="18px" font-style="normal" font-weight="normal" text-decoration="none" x="1702.5" y="625">Marker</text></g></g><g transform="translate(-46,-22) scale(1,1)"><rect fill="#ffdf82" stroke="none" x="1693" y="408" width="74" height="55"/></g><g transform="translate(-46,-22) scale(1,1)"><path fill="none" stroke="#000000" d="M 1693 408 L 1767 408 L 1767 463 L 1693 463 L 1693 408 Z Z" stroke-miterlimit="10"/></g><g transform="translate(-46,-22) scale(1,1)"><g><path fill="none" stroke="none"/><text fill="#000000" stroke="none" font-family="Arial" font-size="18px" font-style="normal" font-weight="normal" text-decoration="none" x="1707" y="433">Notify</text>
		<text fill="#000000" stroke="none" font-family="Arial" font-size="18px" font-style="normal" font-weight="normal" text-decoration="none" x="1711" y="450.5">User</text></g></g><g transform="translate(-46,-22) scale(1,1)"><path fill="none" stroke="#000000" d="M 1728 520 L 1728 463" stroke-miterlimit="10"/></g><g transform="translate(-46,-22) scale(1,1)"><path fill="#000000" stroke="none" d="M 1732.2095177560159 473.16267485762415 L 1728 463 L 1723.7904822439841 473.16267485762415"/></g><g transform="translate(-46,-22) scale(1,1)"><path fill="none" stroke="#000000" d="M 1732.2095177560159 473.16267485762415 L 1728 463 L 1723.7904822439841 473.16267485762415 L 1732.2095177560159 473.16267485762415" stroke-miterlimit="10"/></g><g transform="translate(-46,-22) scale(1,1)"><g><path fill="none" stroke="none"/><text fill="#000000" stroke="none" font-family="Arial" font-size="18px" font-style="normal" font-weight="normal" text-decoration="none" x="1738.5" y="517">Fail</text></g></g><g transform="translate(-46,-22) scale(1,1)"><path fill="none" stroke="#000000" d="M 1767 432 L 2040 432" stroke-miterlimit="10"/></g><g transform="translate(-46,-22) scale(1,1)"><path fill="#000000" stroke="none" d="M 2029.837325142376 436.209517756016 L 2040 432 L 2029.837325142376 427.790482243984"/></g><g transform="translate(-46,-22) scale(1,1)"><path fill="none" stroke="#000000" d="M 2029.837325142376 436.209517756016 L 2040 432 L 2029.837325142376 427.790482243984 L 2029.837325142376 436.209517756016" stroke-miterlimit="10"/></g><g transform="translate(-46,-22) scale(1,1)"><path fill="none" stroke="#000000" d="M 2054 445 L 2054 584 M 2054 584 A 8 8 0 0 1 2046 592 L 1814 592" stroke-miterlimit="10"/></g><g transform="translate(-46,-22) scale(1,1)"><path fill="#000000" stroke="none" d="M 1824.162674857624 587.790482243984 L 1814 592 L 1824.162674857624 596.209517756016"/></g><g transform="translate(-46,-22) scale(1,1)"><path fill="none" stroke="#000000" d="M 1824.162674857624 587.790482243984 L 1814 592 L 1824.162674857624 596.209517756016 L 1824.162674857624 587.790482243984" stroke-miterlimit="10"/></g><g transform="translate(-46,-22) scale(1,1)"><path fill="none" stroke="#000000" d="M 1728 663 L 1728 712" stroke-miterlimit="10"/></g><g transform="translate(-46,-22) scale(1,1)"><path fill="#000000" stroke="none" d="M 1723.7904822439841 701.8373251423759 L 1728 712 L 1732.2095177560159 701.8373251423759"/></g><g transform="translate(-46,-22) scale(1,1)"><path fill="none" stroke="#000000" d="M 1723.7904822439841 701.8373251423759 L 1728 712 L 1732.2095177560159 701.8373251423759 L 1723.7904822439841 701.8373251423759" stroke-miterlimit="10"/></g><g transform="translate(-46,-22) scale(1,1)"><g><path fill="none" stroke="none"/><text fill="#000000" stroke="none" font-family="Arial" font-size="18px" font-style="normal" font-weight="normal" text-decoration="none" x="1734.5" y="677.5">Success</text></g></g><g transform="translate(-46,-22) scale(1,1)"><path fill="#6dceff" stroke="none" d="M 1674 1291.5 L 1730 1240 L 1786 1291.5 L 1730 1343 L 1674 1291.5"/></g><g transform="translate(-46,-22) scale(1,1)"><path fill="none" stroke="#000000" d="M 1674 1291.5 L 1730 1240 L 1786 1291.5 L 1730 1343 L 1674 1291.5 L 1674 1291.5" stroke-miterlimit="10"/></g><g transform="translate(-46,-22) scale(1,1)"><g><path fill="none" stroke="none"/><text fill="#000000" stroke="none" font-family="Arial" font-size="18px" font-style="normal" font-weight="normal" text-decoration="none" x="1704" y="1288.5">Is Last</text>
		<text fill="#000000" stroke="none" font-family="Arial" font-size="18px" font-style="normal" font-weight="normal" text-decoration="none" x="1711.5" y="1306.5">Step</text></g></g><g transform="translate(-46,-22) scale(1,1)"><rect fill="#ffdf82" stroke="none" x="1666" y="824" width="128" height="58"/></g><g transform="translate(-46,-22) scale(1,1)"><path fill="none" stroke="#000000" d="M 1666 824 L 1794 824 L 1794 882 L 1666 882 L 1666 824 Z Z" stroke-miterlimit="10"/></g><g transform="translate(-46,-22) scale(1,1)"><g><path fill="none" stroke="none"/><text fill="#000000" stroke="none" font-family="Arial" font-size="18px" font-style="normal" font-weight="normal" text-decoration="none" x="1689.5" y="849">Load Next</text>
		<text fill="#000000" stroke="none" font-family="Arial" font-size="18px" font-style="normal" font-weight="normal" text-decoration="none" x="1711.5" y="866.5">Step</text></g></g><g transform="translate(-46,-22) scale(1,1)"><path fill="#6dceff" stroke="none" d="M 1674 1511.5 L 1730.5 1440 L 1787 1511.5 L 1730.5 1583 L 1674 1511.5"/></g><g transform="translate(-46,-22) scale(1,1)"><path fill="none" stroke="#000000" d="M 1674 1511.5 L 1730.5 1440 L 1787 1511.5 L 1730.5 1583 L 1674 1511.5 L 1674 1511.5" stroke-miterlimit="10"/></g><g transform="translate(-46,-22) scale(1,1)"><g><path fill="none" stroke="none"/><text fill="#000000" stroke="none" font-family="Arial" font-size="18px" font-style="normal" font-weight="normal" text-decoration="none" x="1702" y="1491">Search</text>
		<text fill="#000000" stroke="none" font-family="Arial" font-size="18px" font-style="normal" font-weight="normal" text-decoration="none" x="1712.5" y="1508.5">Next</text>
		<text fill="#000000" stroke="none" font-family="Arial" font-size="18px" font-style="normal" font-weight="normal" text-decoration="none" x="1707.5" y="1526.5">Aruco</text>
		<text fill="#000000" stroke="none" font-family="Arial" font-size="18px" font-style="normal" font-weight="normal" text-decoration="none" x="1702.5" y="1545">Marker</text></g></g><g transform="translate(-46,-22) scale(1,1)"><path fill="none" stroke="#000000" d="M 1728 1343 L 1728 1440" stroke-miterlimit="10"/></g><g transform="translate(-46,-22) scale(1,1)"><path fill="#000000" stroke="none" d="M 1723.7904822439841 1429.837325142376 L 1728 1440 L 1732.2095177560159 1429.837325142376"/></g><g transform="translate(-46,-22) scale(1,1)"><path fill="none" stroke="#000000" d="M 1723.7904822439841 1429.837325142376 L 1728 1440 L 1732.2095177560159 1429.837325142376 L 1723.7904822439841 1429.837325142376" stroke-miterlimit="10"/></g><g transform="translate(-46,-22) scale(1,1)"><g><path fill="none" stroke="none"/><text fill="#000000" stroke="none" font-family="Arial" font-size="18px" font-style="normal" font-weight="normal" text-decoration="none" x="1733.5" y="1357.5">Yes</text></g></g><g transform="translate(-46,-22) scale(1,1)"><rect fill="#ffdf82" stroke="none" x="1840" y="1576" width="88" height="58"/></g><g transform="translate(-46,-22) scale(1,1)"><path fill="none" stroke="#000000" d="M 1840 1576 L 1928 1576 L 1928 1634 L 1840 1634 L 1840 1576 Z Z" stroke-miterlimit="10"/></g><g transform="translate(-46,-22) scale(1,1)"><g><path fill="none" stroke="none"/><text fill="#000000" stroke="none" font-family="Arial" font-size="18px" font-style="normal" font-weight="normal" text-decoration="none" x="1861" y="1601">Notify</text>
		<text fill="#000000" stroke="none" font-family="Arial" font-size="18px" font-style="normal" font-weight="normal" text-decoration="none" x="1865" y="1618.5">User</text></g></g><g transform="translate(-46,-22) scale(1,1)"><path fill="none" stroke="#000000" d="M 1728 768 L 1728 824" stroke-miterlimit="10"/></g><g transform="translate(-46,-22) scale(1,1)"><path fill="#000000" stroke="none" d="M 1723.7904822439841 813.8373251423759 L 1728 824 L 1732.2095177560159 813.8373251423759"/></g><g transform="translate(-46,-22) scale(1,1)"><path fill="none" stroke="#000000" d="M 1723.7904822439841 813.8373251423759 L 1728 824 L 1732.2095177560159 813.8373251423759 L 1723.7904822439841 813.8373251423759" stroke-miterlimit="10"/></g><g transform="translate(-46,-22) scale(1,1)"><path fill="none" stroke="#000000" d="M 1728 1583 L 1728 1600 M 1728 1600 A 8 8 0 0 0 1736 1608 L 1840 1608" stroke-miterlimit="10"/></g><g transform="translate(-46,-22) scale(1,1)"><path fill="#000000" stroke="none" d="M 1829.837325142376 1612.2095177560159 L 1840 1608 L 1829.837325142376 1603.7904822439841"/></g><g transform="translate(-46,-22) scale(1,1)"><path fill="none" stroke="#000000" d="M 1829.837325142376 1612.2095177560159 L 1840 1608 L 1829.837325142376 1603.7904822439841 L 1829.837325142376 1612.2095177560159" stroke-miterlimit="10"/></g><g transform="translate(-46,-22) scale(1,1)"><g><path fill="none" stroke="none"/><text fill="#000000" stroke="none" font-family="Arial" font-size="18px" font-style="normal" font-weight="normal" text-decoration="none" x="1671.5" y="1589">Failed</text></g></g><g transform="translate(-46,-22) scale(1,1)"><path fill="none" stroke="#000000" d="M 1880 1576 L 1880 1512 M 1880 1512 A 8 8 0 0 0 1872 1504 L 1787 1504" stroke-miterlimit="10"/></g><g transform="translate(-46,-22) scale(1,1)"><path fill="#000000" stroke="none" d="M 1797.162674857624 1499.7904822439841 L 1787 1504 L 1797.162674857624 1508.2095177560159"/></g><g transform="translate(-46,-22) scale(1,1)"><path fill="none" stroke="#000000" d="M 1797.162674857624 1499.7904822439841 L 1787 1504 L 1797.162674857624 1508.2095177560159 L 1797.162674857624 1499.7904822439841" stroke-miterlimit="10"/></g><g transform="translate(-46,-22) scale(1,1)"><g><path fill="none" stroke="none"/><text fill="#000000" stroke="none" font-family="Arial" font-size="18px" font-style="normal" font-weight="normal" text-decoration="none" x="1891.5" y="1548.5">Retry</text></g></g><g transform="translate(-46,-22) scale(1,1)"><path fill="none" stroke="#000000" d="M 1727 882 L 1727 920 M 1727 920 A 8 8 0 0 1 1719 928 L 1540 928 M 1540 928 A 8 8 0 0 0 1532 936 L 1532 1035" stroke-miterlimit="10"/></g><g transform="translate(-46,-22) scale(1,1)"><path fill="#000000" stroke="none" d="M 1527.7904822439841 1024.837325142376 L 1532 1035 L 1536.2095177560159 1024.837325142376"/></g><g transform="translate(-46,-22) scale(1,1)"><path fill="none" stroke="#000000" d="M 1527.7904822439841 1024.837325142376 L 1532 1035 L 1536.2095177560159 1024.837325142376 L 1527.7904822439841 1024.837325142376" stroke-miterlimit="10"/></g><g transform="translate(-46,-22) scale(1,1)"><path fill="#6dceff" stroke="none" d="M 1136 1145.5 L 1244.5 1104 L 1353 1145.5 L 1244.5 1187 L 1136 1145.5"/></g><g transform="translate(-46,-22) scale(1,1)"><path fill="none" stroke="#000000" d="M 1136 1145.5 L 1244.5 1104 L 1353 1145.5 L 1244.5 1187 L 1136 1145.5 L 1136 1145.5" stroke-miterlimit="10"/></g><g transform="translate(-46,-22) scale(1,1)"><g><path fill="none" stroke="none"/><text fill="#000000" stroke="none" font-family="Arial" font-size="18px" font-style="normal" font-weight="normal" text-decoration="none" x="1223" y="1143">Need</text>
		<text fill="#000000" stroke="none" font-family="Arial" font-size="18px" font-style="normal" font-weight="normal" text-decoration="none" x="1190" y="1161">Repositioning</text></g></g><g transform="translate(-46,-22) scale(1,1)"><path fill="none" stroke="#000000" d="M 1674 1504 L 1248 1504 M 1248 1504 A 8 8 0 0 1 1240 1496 L 1240 1187" stroke-miterlimit="10"/></g><g transform="translate(-46,-22) scale(1,1)"><path fill="#000000" stroke="none" d="M 1244.2095177560159 1197.162674857624 L 1240 1187 L 1235.7904822439841 1197.162674857624"/></g><g transform="translate(-46,-22) scale(1,1)"><path fill="none" stroke="#000000" d="M 1244.2095177560159 1197.162674857624 L 1240 1187 L 1235.7904822439841 1197.162674857624 L 1244.2095177560159 1197.162674857624" stroke-miterlimit="10"/></g><g transform="translate(-46,-22) scale(1,1)"><g><path fill="none" stroke="none"/><text fill="#000000" stroke="none" font-family="Arial" font-size="18px" font-style="normal" font-weight="normal" text-decoration="none" x="1613.5" y="1490.5">Success</text></g></g><g transform="translate(-46,-22) scale(1,1)"><rect fill="#ffdf82" stroke="none" x="1040" y="1280" width="128" height="48"/></g><g transform="translate(-46,-22) scale(1,1)"><path fill="none" stroke="#000000" d="M 1040 1280 L 1168 1280 L 1168 1328 L 1040 1328 L 1040 1280 Z Z" stroke-miterlimit="10"/></g><g transform="translate(-46,-22) scale(1,1)"><g><path fill="none" stroke="none"/><text fill="#000000" stroke="none" font-family="Arial" font-size="18px" font-style="normal" font-weight="normal" text-decoration="none" x="1049.5" y="1305">Repositioning</text></g></g><g transform="translate(-46,-22) scale(1,1)"><path fill="none" stroke="#000000" d="M 1136 1144 L 1104 1144 M 1104 1144 A 8 8 0 0 0 1096 1152 L 1096 1280" stroke-miterlimit="10"/></g><g transform="translate(-46,-22) scale(1,1)"><path fill="#000000" stroke="none" d="M 1091.7904822439841 1269.837325142376 L 1096 1280 L 1100.2095177560159 1269.837325142376"/></g><g transform="translate(-46,-22) scale(1,1)"><path fill="none" stroke="#000000" d="M 1091.7904822439841 1269.837325142376 L 1096 1280 L 1100.2095177560159 1269.837325142376 L 1091.7904822439841 1269.837325142376" stroke-miterlimit="10"/></g><g transform="translate(-46,-22) scale(1,1)"><g><path fill="none" stroke="none"/><text fill="#000000" stroke="none" font-family="Arial" font-size="18px" font-style="normal" font-weight="normal" text-decoration="none" x="1103.5" y="1133.5">Yes</text></g></g><g transform="translate(-46,-22) scale(1,1)"><path fill="none" stroke="#000000" d="M 1674 1288 L 1432 1288 M 1432 1288 A 8 8 0 0 1 1424 1280 L 1424 856 M 1424 856 A 8 8 0 0 1 1432 848 L 1666 848" stroke-miterlimit="10"/></g><g transform="translate(-46,-22) scale(1,1)"><path fill="#000000" stroke="none" d="M 1655.837325142376 852.209517756016 L 1666 848 L 1655.837325142376 843.790482243984"/></g><g transform="translate(-46,-22) scale(1,1)"><path fill="none" stroke="#000000" d="M 1655.837325142376 852.209517756016 L 1666 848 L 1655.837325142376 843.790482243984 L 1655.837325142376 852.209517756016" stroke-miterlimit="10"/></g><g transform="translate(-46,-22) scale(1,1)"><g><path fill="none" stroke="none"/><text fill="#000000" stroke="none" font-family="Arial" font-size="18px" font-style="normal" font-weight="normal" text-decoration="none" x="1623.5" y="1276.5">No</text></g></g><g transform="translate(-46,-22) scale(1,1)"><rect fill="#ffd456" stroke="none" x="1048" y="1464" width="82" height="56"/></g><g transform="translate(-46,-22) scale(1,1)"><path fill="none" stroke="#000000" d="M 1048 1464 L 1130 1464 L 1130 1520 L 1048 1520 L 1048 1464 Z Z" stroke-miterlimit="10"/></g><g transform="translate(-46,-22) scale(1,1)"><g><path fill="none" stroke="none"/><text fill="#000000" stroke="none" font-family="Arial" font-size="18px" font-style="normal" font-weight="normal" text-decoration="none" x="1066" y="1489">Notify</text>
		<text fill="#000000" stroke="none" font-family="Arial" font-size="18px" font-style="normal" font-weight="normal" text-decoration="none" x="1070" y="1506.5">User</text></g></g><g transform="translate(-46,-22) scale(1,1)"><rect fill="#ffdf82" stroke="none" x="1681" y="1088" width="98" height="73"/></g><g transform="translate(-46,-22) scale(1,1)"><path fill="none" stroke="#000000" d="M 1681 1088 L 1779 1088 L 1779 1161 L 1681 1161 L 1681 1088 Z Z" stroke-miterlimit="10"/></g><g transform="translate(-46,-22) scale(1,1)"><g><path fill="none" stroke="none"/><text fill="#000000" stroke="none" font-family="Arial" font-size="18px" font-style="normal" font-weight="normal" text-decoration="none" x="1709" y="1113">Send</text>
		<text fill="#000000" stroke="none" font-family="Arial" font-size="18px" font-style="normal" font-weight="normal" text-decoration="none" x="1701.5" y="1130.5">Sensor</text>
		<text fill="#000000" stroke="none" font-family="Arial" font-size="18px" font-style="normal" font-weight="normal" text-decoration="none" x="1711" y="1148.5">Data</text></g></g><g transform="translate(-46,-22) scale(1,1)"><path fill="none" stroke="#000000" d="M 1096 1328 L 1096 1464" stroke-miterlimit="10"/></g><g transform="translate(-46,-22) scale(1,1)"><path fill="#000000" stroke="none" d="M 1091.7904822439841 1453.837325142376 L 1096 1464 L 1100.2095177560159 1453.837325142376"/></g><g transform="translate(-46,-22) scale(1,1)"><path fill="none" stroke="#000000" d="M 1091.7904822439841 1453.837325142376 L 1096 1464 L 1100.2095177560159 1453.837325142376 L 1091.7904822439841 1453.837325142376" stroke-miterlimit="10"/></g><g transform="translate(-46,-22) scale(1,1)"><path fill="none" stroke="#000000" d="M 1130 1504 L 1232 1504 M 1232 1504 A 8 8 0 0 0 1240 1496 L 1240 1187" stroke-miterlimit="10"/></g><g transform="translate(-46,-22) scale(1,1)"><path fill="#000000" stroke="none" d="M 1244.2095177560159 1197.162674857624 L 1240 1187 L 1235.7904822439841 1197.162674857624"/></g><g transform="translate(-46,-22) scale(1,1)"><path fill="none" stroke="#000000" d="M 1244.2095177560159 1197.162674857624 L 1240 1187 L 1235.7904822439841 1197.162674857624 L 1244.2095177560159 1197.162674857624" stroke-miterlimit="10"/></g><g transform="translate(-46,-22) scale(1,1)"><g><path fill="none" stroke="none"/><text fill="#000000" stroke="none" font-family="Arial" font-size="18px" font-style="normal" font-weight="normal" text-decoration="none" x="1134.5" y="1489.5">Retry</text></g></g><g transform="translate(-46,-22) scale(1,1)"><path fill="none" stroke="#000000" d="M 1728 1161 L 1728 1240" stroke-miterlimit="10"/></g><g transform="translate(-46,-22) scale(1,1)"><path fill="#000000" stroke="none" d="M 1723.7904822439841 1229.837325142376 L 1728 1240 L 1732.2095177560159 1229.837325142376"/></g><g transform="translate(-46,-22) scale(1,1)"><path fill="none" stroke="#000000" d="M 1723.7904822439841 1229.837325142376 L 1728 1240 L 1732.2095177560159 1229.837325142376 L 1723.7904822439841 1229.837325142376" stroke-miterlimit="10"/></g><g transform="translate(-46,-22) scale(1,1)"><path fill="#6dceff" stroke="none" d="M 1928 1063.5 L 2009.5 1028 L 2091 1063.5 L 2009.5 1099 L 1928 1063.5"/></g><g transform="translate(-46,-22) scale(1,1)"><path fill="none" stroke="#000000" d="M 1928 1063.5 L 2009.5 1028 L 2091 1063.5 L 2009.5 1099 L 1928 1063.5 L 1928 1063.5" stroke-miterlimit="10"/></g><g transform="translate(-46,-22) scale(1,1)"><g><path fill="none" stroke="none"/><text fill="#000000" stroke="none" font-family="Arial" font-size="18px" font-style="normal" font-weight="normal" text-decoration="none" x="1987.5" y="1061">Verify</text>
		<text fill="#000000" stroke="none" font-family="Arial" font-size="18px" font-style="normal" font-weight="normal" text-decoration="none" x="1968.5" y="1078.5">Messages</text></g></g><g transform="translate(-46,-22) scale(1,1)"><path fill="none" stroke="#000000" d="M 1728 882 L 1728 920 M 1728 920 A 8 8 0 0 0 1736 928 L 2000 928 M 2000 928 A 8 8 0 0 1 2008 936 L 2008 1028" stroke-miterlimit="10"/></g><g transform="translate(-46,-22) scale(1,1)"><path fill="#000000" stroke="none" d="M 2003.7904822439841 1017.8373251423759 L 2008 1028 L 2012.2095177560159 1017.8373251423759"/></g><g transform="translate(-46,-22) scale(1,1)"><path fill="none" stroke="#000000" d="M 2003.7904822439841 1017.8373251423759 L 2008 1028 L 2012.2095177560159 1017.8373251423759 L 2003.7904822439841 1017.8373251423759" stroke-miterlimit="10"/></g><g transform="translate(-46,-22) scale(1,1)"><path fill="none" stroke="#000000" d="M 1928 1064 L 1856 1064 M 1856 1064 A 8 8 0 0 0 1848 1072 L 1848 1280 M 1848 1280 A 8 8 0 0 1 1840 1288 L 1786 1288" stroke-miterlimit="10"/></g><g transform="translate(-46,-22) scale(1,1)"><path fill="#000000" stroke="none" d="M 1796.162674857624 1283.7904822439841 L 1786 1288 L 1796.162674857624 1292.2095177560159"/></g><g transform="translate(-46,-22) scale(1,1)"><path fill="none" stroke="#000000" d="M 1796.162674857624 1283.7904822439841 L 1786 1288 L 1796.162674857624 1292.2095177560159 L 1796.162674857624 1283.7904822439841" stroke-miterlimit="10"/></g><g transform="translate(-46,-22) scale(1,1)"><g><path fill="none" stroke="none"/><text fill="#000000" stroke="none" font-family="Arial" font-size="18px" font-style="normal" font-weight="normal" text-decoration="none" x="1879.5" y="1053.5">None</text></g></g><g transform="translate(-46,-22) scale(1,1)"><rect fill="#ffdf82" stroke="none" x="1972" y="1264" width="74" height="55"/></g><g transform="translate(-46,-22) scale(1,1)"><path fill="none" stroke="#000000" d="M 1972 1264 L 2046 1264 L 2046 1319 L 1972 1319 L 1972 1264 Z Z" stroke-miterlimit="10"/></g><g transform="translate(-46,-22) scale(1,1)"><g><path fill="none" stroke="none"/><text fill="#000000" stroke="none" font-family="Arial" font-size="18px" font-style="normal" font-weight="normal" text-decoration="none" x="1982" y="1288.5">Buzzer</text>
		<text fill="#000000" stroke="none" font-family="Arial" font-size="18px" font-style="normal" font-weight="normal" text-decoration="none" x="1997" y="1307">Off</text></g></g><g transform="translate(-46,-22) scale(1,1)"><path fill="#6dceff" stroke="none" d="M 1952 1179.5 L 2008.5 1144 L 2065 1179.5 L 2008.5 1215 L 1952 1179.5"/></g><g transform="translate(-46,-22) scale(1,1)"><path fill="none" stroke="#000000" d="M 1952 1179.5 L 2008.5 1144 L 2065 1179.5 L 2008.5 1215 L 1952 1179.5 L 1952 1179.5" stroke-miterlimit="10"/></g><g transform="translate(-46,-22) scale(1,1)"><g><path fill="none" stroke="none"/><text fill="#000000" stroke="none" font-family="Arial" font-size="18px" font-style="normal" font-weight="normal" text-decoration="none" x="1981.5" y="1176.5">Buzzer</text>
		<text fill="#000000" stroke="none" font-family="Arial" font-size="18px" font-style="normal" font-weight="normal" text-decoration="none" x="1996.5" y="1194.5">On</text></g></g><g transform="translate(-46,-22) scale(1,1)"><path fill="none" stroke="#000000" d="M 2008 1215 L 2008 1264" stroke-miterlimit="10"/></g><g transform="translate(-46,-22) scale(1,1)"><path fill="#000000" stroke="none" d="M 2003.7904822439841 1253.837325142376 L 2008 1264 L 2012.2095177560159 1253.837325142376"/></g><g transform="translate(-46,-22) scale(1,1)"><path fill="none" stroke="#000000" d="M 2003.7904822439841 1253.837325142376 L 2008 1264 L 2012.2095177560159 1253.837325142376 L 2003.7904822439841 1253.837325142376" stroke-miterlimit="10"/></g><g transform="translate(-46,-22) scale(1,1)"><g><path fill="none" stroke="none"/><text fill="#000000" stroke="none" font-family="Arial" font-size="18px" font-style="normal" font-weight="normal" text-decoration="none" x="2014.5" y="1229.5">Yes</text></g></g><g transform="translate(-46,-22) scale(1,1)"><path fill="none" stroke="#000000" d="M 1952 1176 L 1896 1176 M 1896 1176 A 8 8 0 0 0 1888 1184 L 1888 1280 M 1888 1280 A 8 8 0 0 1 1880 1288 L 1786 1288" stroke-miterlimit="10"/></g><g transform="translate(-46,-22) scale(1,1)"><path fill="#000000" stroke="none" d="M 1796.162674857624 1283.7904822439841 L 1786 1288 L 1796.162674857624 1292.2095177560159"/></g><g transform="translate(-46,-22) scale(1,1)"><path fill="none" stroke="#000000" d="M 1796.162674857624 1283.7904822439841 L 1786 1288 L 1796.162674857624 1292.2095177560159 L 1796.162674857624 1283.7904822439841" stroke-miterlimit="10"/></g><g transform="translate(-46,-22) scale(1,1)"><g><path fill="none" stroke="none"/><text fill="#000000" stroke="none" font-family="Arial" font-size="18px" font-style="normal" font-weight="normal" text-decoration="none" x="1927.5" y="1169.5">No</text></g></g><g transform="translate(-46,-22) scale(1,1)"><path fill="none" stroke="#000000" d="M 2008 1099 L 2008 1144" stroke-miterlimit="10"/></g><g transform="translate(-46,-22) scale(1,1)"><path fill="#000000" stroke="none" d="M 2003.7904822439841 1133.837325142376 L 2008 1144 L 2012.2095177560159 1133.837325142376"/></g><g transform="translate(-46,-22) scale(1,1)"><path fill="none" stroke="#000000" d="M 2003.7904822439841 1133.837325142376 L 2008 1144 L 2012.2095177560159 1133.837325142376 L 2003.7904822439841 1133.837325142376" stroke-miterlimit="10"/></g><g transform="translate(-46,-22) scale(1,1)"><path fill="none" stroke="#000000" d="M 1972 1288 L 1786 1288" stroke-miterlimit="10"/></g><g transform="translate(-46,-22) scale(1,1)"><path fill="#000000" stroke="none" d="M 1796.162674857624 1283.7904822439841 L 1786 1288 L 1796.162674857624 1292.2095177560159"/></g><g transform="translate(-46,-22) scale(1,1)"><path fill="none" stroke="#000000" d="M 1796.162674857624 1283.7904822439841 L 1786 1288 L 1796.162674857624 1292.2095177560159 L 1796.162674857624 1283.7904822439841" stroke-miterlimit="10"/></g><g transform="translate(-46,-22) scale(1,1)"><path fill="#6dceff" stroke="none" d="M 2168 1197.5 L 2252 1144 L 2336 1197.5 L 2252 1251 L 2168 1197.5"/></g><g transform="translate(-46,-22) scale(1,1)"><path fill="none" stroke="#000000" d="M 2168 1197.5 L 2252 1144 L 2336 1197.5 L 2252 1251 L 2168 1197.5 L 2168 1197.5" stroke-miterlimit="10"/></g><g transform="translate(-46,-22) scale(1,1)"><g><path fill="none" stroke="none"/><text fill="#000000" stroke="none" font-family="Arial" font-size="18px" font-style="normal" font-weight="normal" text-decoration="none" x="2214" y="1185.5">Presence</text>
		<text fill="#000000" stroke="none" font-family="Arial" font-size="18px" font-style="normal" font-weight="normal" text-decoration="none" x="2210.5" y="1203.5">Movement</text>
		<text fill="#000000" stroke="none" font-family="Arial" font-size="18px" font-style="normal" font-weight="normal" text-decoration="none" x="2216" y="1222">Detected</text></g></g><g transform="translate(-46,-22) scale(1,1)"><rect fill="#ffdf82" stroke="none" x="2216" y="1296" width="74" height="55"/></g><g transform="translate(-46,-22) scale(1,1)"><path fill="none" stroke="#000000" d="M 2216 1296 L 2290 1296 L 2290 1351 L 2216 1351 L 2216 1296 Z Z" stroke-miterlimit="10"/></g><g transform="translate(-46,-22) scale(1,1)"><g><path fill="none" stroke="none"/><text fill="#000000" stroke="none" font-family="Arial" font-size="18px" font-style="normal" font-weight="normal" text-decoration="none" x="2230" y="1321">Notify</text>
		<text fill="#000000" stroke="none" font-family="Arial" font-size="18px" font-style="normal" font-weight="normal" text-decoration="none" x="2234" y="1338.5">User</text></g></g><g transform="translate(-46,-22) scale(1,1)"><path fill="none" stroke="#000000" d="M 2168 1200 L 2128 1200 M 2128 1200 A 8 8 0 0 0 2120 1208 L 2120 1360 M 2120 1360 A 8 8 0 0 1 2112 1368 L 1896 1368 M 1896 1368 A 8 8 0 0 1 1888 1360 L 1888 1296 M 1888 1296 A 8 8 0 0 0 1880 1288 L 1786 1288" stroke-miterlimit="10"/></g><g transform="translate(-46,-22) scale(1,1)"><path fill="#000000" stroke="none" d="M 1796.162674857624 1283.7904822439841 L 1786 1288 L 1796.162674857624 1292.2095177560159"/></g><g transform="translate(-46,-22) scale(1,1)"><path fill="none" stroke="#000000" d="M 1796.162674857624 1283.7904822439841 L 1786 1288 L 1796.162674857624 1292.2095177560159 L 1796.162674857624 1283.7904822439841" stroke-miterlimit="10"/></g><g transform="translate(-46,-22) scale(1,1)"><g><path fill="none" stroke="none"/><text fill="#000000" stroke="none" font-family="Arial" font-size="18px" font-style="normal" font-weight="normal" text-decoration="none" x="2135.5" y="1188.5">No</text></g></g><g transform="translate(-46,-22) scale(1,1)"><path fill="none" stroke="#000000" d="M 2248 1251 L 2248 1296" stroke-miterlimit="10"/></g><g transform="translate(-46,-22) scale(1,1)"><path fill="#000000" stroke="none" d="M 2243.790482243984 1285.837325142376 L 2248 1296 L 2252.209517756016 1285.837325142376"/></g><g transform="translate(-46,-22) scale(1,1)"><path fill="none" stroke="#000000" d="M 2243.790482243984 1285.837325142376 L 2248 1296 L 2252.209517756016 1285.837325142376 L 2243.790482243984 1285.837325142376" stroke-miterlimit="10"/></g><g transform="translate(-46,-22) scale(1,1)"><g><path fill="none" stroke="none"/><text fill="#000000" stroke="none" font-family="Arial" font-size="18px" font-style="normal" font-weight="normal" text-decoration="none" x="2258.5" y="1261.5">Yes</text></g></g><g transform="translate(-46,-22) scale(1,1)"><rect fill="#ffdf82" stroke="none" x="2376" y="1296" width="74" height="58"/></g><g transform="translate(-46,-22) scale(1,1)"><path fill="none" stroke="#000000" d="M 2376 1296 L 2450 1296 L 2450 1354 L 2376 1354 L 2376 1296 Z Z" stroke-miterlimit="10"/></g><g transform="translate(-46,-22) scale(1,1)"><g><path fill="none" stroke="none"/><text fill="#000000" stroke="none" font-family="Arial" font-size="18px" font-style="normal" font-weight="normal" text-decoration="none" x="2386" y="1320.5">Buzzer</text>
		<text fill="#000000" stroke="none" font-family="Arial" font-size="18px" font-style="normal" font-weight="normal" text-decoration="none" x="2401" y="1338.5">On</text></g></g><g transform="translate(-46,-22) scale(1,1)"><path fill="none" stroke="#000000" d="M 2290 1320 L 2376 1320" stroke-miterlimit="10"/></g><g transform="translate(-46,-22) scale(1,1)"><path fill="#000000" stroke="none" d="M 2365.837325142376 1324.2095177560159 L 2376 1320 L 2365.837325142376 1315.7904822439841"/></g><g transform="translate(-46,-22) scale(1,1)"><path fill="none" stroke="#000000" d="M 2365.837325142376 1324.2095177560159 L 2376 1320 L 2365.837325142376 1315.7904822439841 L 2365.837325142376 1324.2095177560159" stroke-miterlimit="10"/></g><g transform="translate(-46,-22) scale(1,1)"><path fill="#6dceff" stroke="none" d="M 2504 1199.5 L 2591.5 1128 L 2679 1199.5 L 2591.5 1271 L 2504 1199.5"/></g><g transform="translate(-46,-22) scale(1,1)"><path fill="none" stroke="#000000" d="M 2504 1199.5 L 2591.5 1128 L 2679 1199.5 L 2591.5 1271 L 2504 1199.5 L 2504 1199.5" stroke-miterlimit="10"/></g><g transform="translate(-46,-22) scale(1,1)"><g><path fill="none" stroke="none"/><text fill="#000000" stroke="none" font-family="Arial" font-size="18px" font-style="normal" font-weight="normal" text-decoration="none" x="2570.5" y="1179">Send</text>
		<text fill="#000000" stroke="none" font-family="Arial" font-size="18px" font-style="normal" font-weight="normal" text-decoration="none" x="2547.5" y="1197">Information</text>
		<text fill="#000000" stroke="none" font-family="Arial" font-size="18px" font-style="normal" font-weight="normal" text-decoration="none" x="2558" y="1215">to Cloud</text>
		<text fill="#000000" stroke="none" font-family="Arial" font-size="18px" font-style="normal" font-weight="normal" text-decoration="none" x="2565" y="1232.5">Server</text></g></g><g transform="translate(-46,-22) scale(1,1)"><rect fill="#ffdf82" stroke="none" x="1682" y="984" width="96" height="73"/></g><g transform="translate(-46,-22) scale(1,1)"><path fill="none" stroke="#000000" d="M 1682 984 L 1778 984 L 1778 1057 L 1682 1057 L 1682 984 Z Z" stroke-miterlimit="10"/></g><g transform="translate(-46,-22) scale(1,1)"><g><path fill="none" stroke="none"/><text fill="#000000" stroke="none" font-family="Arial" font-size="18px" font-style="normal" font-weight="normal" text-decoration="none" x="1708.5" y="1009">Read</text>
		<text fill="#000000" stroke="none" font-family="Arial" font-size="18px" font-style="normal" font-weight="normal" text-decoration="none" x="1701.5" y="1026.5">Sensor</text>
		<text fill="#000000" stroke="none" font-family="Arial" font-size="18px" font-style="normal" font-weight="normal" text-decoration="none" x="1711" y="1044.5">Data</text></g></g><g transform="translate(-46,-22) scale(1,1)"><path fill="none" stroke="#000000" d="M 1726 882 L 1726 984" stroke-miterlimit="10"/></g><g transform="translate(-46,-22) scale(1,1)"><path fill="#000000" stroke="none" d="M 1721.7904822439841 973.8373251423759 L 1726 984 L 1730.2095177560159 973.8373251423759"/></g><g transform="translate(-46,-22) scale(1,1)"><path fill="none" stroke="#000000" d="M 1721.7904822439841 973.8373251423759 L 1726 984 L 1730.2095177560159 973.8373251423759 L 1721.7904822439841 973.8373251423759" stroke-miterlimit="10"/></g><g transform="translate(-46,-22) scale(1,1)"><path fill="none" stroke="#000000" d="M 1728 1057 L 1728 1088" stroke-miterlimit="10"/></g><g transform="translate(-46,-22) scale(1,1)"><path fill="#000000" stroke="none" d="M 1723.7904822439841 1077.837325142376 L 1728 1088 L 1732.2095177560159 1077.837325142376"/></g><g transform="translate(-46,-22) scale(1,1)"><path fill="none" stroke="#000000" d="M 1723.7904822439841 1077.837325142376 L 1728 1088 L 1732.2095177560159 1077.837325142376 L 1723.7904822439841 1077.837325142376" stroke-miterlimit="10"/></g><g transform="translate(-46,-22) scale(1,1)"><path fill="none" stroke="#000000" d="M 2679 1200 L 2712 1200 L 2712 1088 L 2592 1088 L 2592 1128" stroke-miterlimit="10"/></g><g transform="translate(-46,-22) scale(1,1)"><path fill="#000000" stroke="none" d="M 2587.790482243984 1117.837325142376 L 2592 1128 L 2596.209517756016 1117.837325142376"/></g><g transform="translate(-46,-22) scale(1,1)"><path fill="none" stroke="#000000" d="M 2587.790482243984 1117.837325142376 L 2592 1128 L 2596.209517756016 1117.837325142376 L 2587.790482243984 1117.837325142376" stroke-miterlimit="10"/></g><g transform="translate(-46,-22) scale(1,1)"><g><path fill="none" stroke="none"/><text fill="#000000" stroke="none" font-family="Arial" font-size="18px" font-style="normal" font-weight="normal" text-decoration="none" x="2679.5" y="1222">Failed</text></g></g><g transform="translate(-46,-22) scale(1,1)"><rect fill="#ffdf82" stroke="none" x="2376" y="1168" width="74" height="58"/></g><g transform="translate(-46,-22) scale(1,1)"><path fill="none" stroke="#000000" d="M 2376 1168 L 2450 1168 L 2450 1226 L 2376 1226 L 2376 1168 Z Z" stroke-miterlimit="10"/></g><g transform="translate(-46,-22) scale(1,1)"><g><path fill="none" stroke="none"/><text fill="#000000" stroke="none" font-family="Arial" font-size="18px" font-style="normal" font-weight="normal" text-decoration="none" x="2385.5" y="1192.5">Motors</text>
		<text fill="#000000" stroke="none" font-family="Arial" font-size="18px" font-style="normal" font-weight="normal" text-decoration="none" x="2401" y="1211">Off</text></g></g><g transform="translate(-46,-22) scale(1,1)"><path fill="none" stroke="#000000" d="M 2450 1194 L 2504 1194" stroke-miterlimit="10"/></g><g transform="translate(-46,-22) scale(1,1)"><path fill="#000000" stroke="none" d="M 2493.837325142376 1198.2095177560159 L 2504 1194 L 2493.837325142376 1189.7904822439841"/></g><g transform="translate(-46,-22) scale(1,1)"><path fill="none" stroke="#000000" d="M 2493.837325142376 1198.2095177560159 L 2504 1194 L 2493.837325142376 1189.7904822439841 L 2493.837325142376 1198.2095177560159" stroke-miterlimit="10"/></g><g transform="translate(-46,-22) scale(1,1)"><path fill="none" stroke="#000000" d="M 2413 1296 L 2413 1226" stroke-miterlimit="10"/></g><g transform="translate(-46,-22) scale(1,1)"><path fill="#000000" stroke="none" d="M 2417.209517756016 1236.162674857624 L 2413 1226 L 2408.790482243984 1236.162674857624"/></g><g transform="translate(-46,-22) scale(1,1)"><path fill="none" stroke="#000000" d="M 2417.209517756016 1236.162674857624 L 2413 1226 L 2408.790482243984 1236.162674857624 L 2417.209517756016 1236.162674857624" stroke-miterlimit="10"/></g><g transform="translate(-46,-22) scale(1,1)"><rect fill="#ffdf82" stroke="none" x="2184" y="1018" width="136" height="91"/></g><g transform="translate(-46,-22) scale(1,1)"><path fill="none" stroke="#000000" d="M 2184 1018 L 2320 1018 L 2320 1109 L 2184 1109 L 2184 1018 Z Z" stroke-miterlimit="10"/></g><g transform="translate(-46,-22) scale(1,1)"><g><path fill="none" stroke="none"/><text fill="#000000" stroke="none" font-family="Arial" font-size="18px" font-style="normal" font-weight="normal" text-decoration="none" x="2221" y="1043">Routine</text>
		<text fill="#000000" stroke="none" font-family="Arial" font-size="18px" font-style="normal" font-weight="normal" text-decoration="none" x="2214.5" y="1061">Checking</text>
		<text fill="#000000" stroke="none" font-family="Arial" font-size="18px" font-style="normal" font-weight="normal" text-decoration="none" x="2196.5" y="1079">Presence and</text>
		<text fill="#000000" stroke="none" font-family="Arial" font-size="18px" font-style="normal" font-weight="normal" text-decoration="none" x="2210.5" y="1096.5">Movement</text></g></g><g transform="translate(-46,-22) scale(1,1)"><path fill="none" stroke="#000000" d="M 1728 882 L 1728 920 M 1728 920 A 8 8 0 0 0 1736 928 L 2248 928 M 2248 928 A 8 8 0 0 1 2256 936 L 2256 1018" stroke-miterlimit="10"/></g><g transform="translate(-46,-22) scale(1,1)"><path fill="#000000" stroke="none" d="M 2251.790482243984 1007.8373251423759 L 2256 1018 L 2260.209517756016 1007.8373251423759"/></g><g transform="translate(-46,-22) scale(1,1)"><path fill="none" stroke="#000000" d="M 2251.790482243984 1007.8373251423759 L 2256 1018 L 2260.209517756016 1007.8373251423759 L 2251.790482243984 1007.8373251423759" stroke-miterlimit="10"/></g><g transform="translate(-46,-22) scale(1,1)"><path fill="none" stroke="#000000" d="M 2252 1109 L 2252 1144" stroke-miterlimit="10"/></g><g transform="translate(-46,-22) scale(1,1)"><path fill="#000000" stroke="none" d="M 2247.790482243984 1133.837325142376 L 2252 1144 L 2256.209517756016 1133.837325142376"/></g><g transform="translate(-46,-22) scale(1,1)"><path fill="none" stroke="#000000" d="M 2247.790482243984 1133.837325142376 L 2252 1144 L 2256.209517756016 1133.837325142376 L 2247.790482243984 1133.837325142376" stroke-miterlimit="10"/></g><g transform="translate(-46,-22) scale(1,1)"><path fill="#6dceff" stroke="none" d="M 2320 1507.5 L 2401.5 1472 L 2483 1507.5 L 2401.5 1543 L 2320 1507.5"/></g><g transform="translate(-46,-22) scale(1,1)"><path fill="none" stroke="#000000" d="M 2320 1507.5 L 2401.5 1472 L 2483 1507.5 L 2401.5 1543 L 2320 1507.5 L 2320 1507.5" stroke-miterlimit="10"/></g><g transform="translate(-46,-22) scale(1,1)"><g><path fill="none" stroke="none"/><text fill="#000000" stroke="none" font-family="Arial" font-size="18px" font-style="normal" font-weight="normal" text-decoration="none" x="2379.5" y="1505">Verify</text>
		<text fill="#000000" stroke="none" font-family="Arial" font-size="18px" font-style="normal" font-weight="normal" text-decoration="none" x="2360.5" y="1522.5">Messages</text></g></g><g transform="translate(-46,-22) scale(1,1)"><path fill="none" stroke="#000000" d="M 2592 1271 L 2592 1496 M 2592 1496 A 8 8 0 0 1 2584 1504 L 2483 1504" stroke-miterlimit="10"/></g><g transform="translate(-46,-22) scale(1,1)"><path fill="#000000" stroke="none" d="M 2493.162674857624 1499.7904822439841 L 2483 1504 L 2493.162674857624 1508.2095177560159"/></g><g transform="translate(-46,-22) scale(1,1)"><path fill="none" stroke="#000000" d="M 2493.162674857624 1499.7904822439841 L 2483 1504 L 2493.162674857624 1508.2095177560159 L 2493.162674857624 1499.7904822439841" stroke-miterlimit="10"/></g><g transform="translate(-46,-22) scale(1,1)"><g><path fill="none" stroke="none"/><text fill="#000000" stroke="none" font-family="Arial" font-size="18px" font-style="normal" font-weight="normal" text-decoration="none" x="2607.5" y="1293.5">Success</text></g></g><g transform="translate(-46,-22) scale(1,1)"><rect fill="#ffdf82" stroke="none" x="1972" y="1408" width="74" height="73"/></g><g transform="translate(-46,-22) scale(1,1)"><path fill="none" stroke="#000000" d="M 1972 1408 L 2046 1408 L 2046 1481 L 1972 1481 L 1972 1408 Z Z" stroke-miterlimit="10"/></g><g transform="translate(-46,-22) scale(1,1)"><g><path fill="none" stroke="none"/><text fill="#000000" stroke="none" font-family="Arial" font-size="18px" font-style="normal" font-weight="normal" text-decoration="none" x="1982" y="1432.5">Buzzer</text>
		<text fill="#000000" stroke="none" font-family="Arial" font-size="18px" font-style="normal" font-weight="normal" text-decoration="none" x="1990.5" y="1450.5">Turn</text>
		<text fill="#000000" stroke="none" font-family="Arial" font-size="18px" font-style="normal" font-weight="normal" text-decoration="none" x="1997" y="1469">Off</text></g></g><g transform="translate(-46,-22) scale(1,1)"><path fill="none" stroke="#000000" d="M 2400 1472 L 2400 1452 M 2400 1452 A 8 8 0 0 0 2392 1444 L 2046 1444" stroke-miterlimit="10"/></g><g transform="translate(-46,-22) scale(1,1)"><path fill="#000000" stroke="none" d="M 2056.162674857624 1439.7904822439841 L 2046 1444 L 2056.162674857624 1448.2095177560159"/></g><g transform="translate(-46,-22) scale(1,1)"><path fill="none" stroke="#000000" d="M 2056.162674857624 1439.7904822439841 L 2046 1444 L 2056.162674857624 1448.2095177560159 L 2056.162674857624 1439.7904822439841" stroke-miterlimit="10"/></g><g transform="translate(-46,-22) scale(1,1)"><g><path fill="none" stroke="none"/><text fill="#000000" stroke="none" font-family="Arial" font-size="18px" font-style="normal" font-weight="normal" text-decoration="none" x="2406.5" y="1461">Continue</text></g></g><g transform="translate(-46,-22) scale(1,1)"><path fill="none" stroke="#000000" d="M 2392 1543 L 2392 1608 L 2592 1608 L 2592 1504 L 2483 1504" stroke-miterlimit="10"/></g><g transform="translate(-46,-22) scale(1,1)"><path fill="#000000" stroke="none" d="M 2493.162674857624 1499.7904822439841 L 2483 1504 L 2493.162674857624 1508.2095177560159"/></g><g transform="translate(-46,-22) scale(1,1)"><path fill="none" stroke="#000000" d="M 2493.162674857624 1499.7904822439841 L 2483 1504 L 2493.162674857624 1508.2095177560159 L 2493.162674857624 1499.7904822439841" stroke-miterlimit="10"/></g><g transform="translate(-46,-22) scale(1,1)"><g><path fill="none" stroke="none"/><text fill="#000000" stroke="none" font-family="Arial" font-size="18px" font-style="normal" font-weight="normal" text-decoration="none" x="2395.5" y="1579.5">None</text></g></g><g transform="translate(-46,-22) scale(1,1)"><path fill="none" stroke="#000000" d="M 1972 1440 L 1896 1440 M 1896 1440 A 8 8 0 0 1 1888 1432 L 1888 1296 M 1888 1296 A 8 8 0 0 0 1880 1288 L 1786 1288" stroke-miterlimit="10"/></g><g transform="translate(-46,-22) scale(1,1)"><path fill="#000000" stroke="none" d="M 1796.162674857624 1283.7904822439841 L 1786 1288 L 1796.162674857624 1292.2095177560159"/></g><g transform="translate(-46,-22) scale(1,1)"><path fill="none" stroke="#000000" d="M 1796.162674857624 1283.7904822439841 L 1786 1288 L 1796.162674857624 1292.2095177560159 L 1796.162674857624 1283.7904822439841" stroke-miterlimit="10"/></g><g transform="translate(-46,-22) scale(1,1)"><rect fill="#ffdf82" stroke="none" x="2112" y="1600" width="128" height="73"/></g><g transform="translate(-46,-22) scale(1,1)"><path fill="none" stroke="#000000" d="M 2112 1600 L 2240 1600 L 2240 1673 L 2112 1673 L 2112 1600 Z Z" stroke-miterlimit="10"/></g><g transform="translate(-46,-22) scale(1,1)"><g><path fill="none" stroke="none"/><text fill="#000000" stroke="none" font-family="Arial" font-size="18px" font-style="normal" font-weight="normal" text-decoration="none" x="2128" y="1624.5">Buzzer Turn</text>
		<text fill="#000000" stroke="none" font-family="Arial" font-size="18px" font-style="normal" font-weight="normal" text-decoration="none" x="2146.5" y="1643">Off and</text>
		<text fill="#000000" stroke="none" font-family="Arial" font-size="18px" font-style="normal" font-weight="normal" text-decoration="none" x="2139.5" y="1661">Stand By</text></g></g><g transform="translate(-46,-22) scale(1,1)"><path fill="none" stroke="#000000" d="M 2320 1505 L 2192 1505 M 2192 1505 A 8 8 0 0 0 2184 1513 L 2184 1600" stroke-miterlimit="10"/></g><g transform="translate(-46,-22) scale(1,1)"><path fill="#000000" stroke="none" d="M 2179.790482243984 1589.837325142376 L 2184 1600 L 2188.209517756016 1589.837325142376"/></g><g transform="translate(-46,-22) scale(1,1)"><path fill="none" stroke="#000000" d="M 2179.790482243984 1589.837325142376 L 2184 1600 L 2188.209517756016 1589.837325142376 L 2179.790482243984 1589.837325142376" stroke-miterlimit="10"/></g><g transform="translate(-46,-22) scale(1,1)"><g><path fill="none" stroke="none"/><text fill="#000000" stroke="none" font-family="Arial" font-size="18px" font-style="normal" font-weight="normal" text-decoration="none" x="2277.5" y="1492.5">Stop</text></g></g><g transform="translate(-46,-22) scale(1,1)"><path fill="#6dceff" stroke="none" d="M 1192 741.5 L 1248.5 688 L 1305 741.5 L 1248.5 795 L 1192 741.5"/></g><g transform="translate(-46,-22) scale(1,1)"><path fill="none" stroke="#000000" d="M 1192 741.5 L 1248.5 688 L 1305 741.5 L 1248.5 795 L 1192 741.5 L 1192 741.5" stroke-miterlimit="10"/></g><g transform="translate(-46,-22) scale(1,1)"><g><path fill="none" stroke="none"/><text fill="#000000" stroke="none" font-family="Arial" font-size="18px" font-style="normal" font-weight="normal" text-decoration="none" x="1222" y="730">Is First</text>
		<text fill="#000000" stroke="none" font-family="Arial" font-size="18px" font-style="normal" font-weight="normal" text-decoration="none" x="1225.5" y="747.5">Aruco</text>
		<text fill="#000000" stroke="none" font-family="Arial" font-size="18px" font-style="normal" font-weight="normal" text-decoration="none" x="1220.5" y="766">Marker</text></g></g><g transform="translate(-46,-22) scale(1,1)"><path fill="none" stroke="#000000" d="M 1248 1104 L 1248 795" stroke-miterlimit="10"/></g><g transform="translate(-46,-22) scale(1,1)"><path fill="#000000" stroke="none" d="M 1252.2095177560159 805.1626748576241 L 1248 795 L 1243.7904822439841 805.1626748576241"/></g><g transform="translate(-46,-22) scale(1,1)"><path fill="none" stroke="#000000" d="M 1252.2095177560159 805.1626748576241 L 1248 795 L 1243.7904822439841 805.1626748576241 L 1252.2095177560159 805.1626748576241" stroke-miterlimit="10"/></g><g transform="translate(-46,-22) scale(1,1)"><g><path fill="none" stroke="none"/><text fill="#000000" stroke="none" font-family="Arial" font-size="20px" font-style="normal" font-weight="normal" text-decoration="none" x="1214.5" y="1095.5">No</text></g></g><g transform="translate(-46,-22) scale(1,1)"><path fill="none" stroke="#000000" d="M 1305 744 L 1650 744" stroke-miterlimit="10"/></g><g transform="translate(-46,-22) scale(1,1)"><path fill="#000000" stroke="none" d="M 1639.837325142376 748.209517756016 L 1650 744 L 1639.837325142376 739.790482243984"/></g><g transform="translate(-46,-22) scale(1,1)"><path fill="none" stroke="#000000" d="M 1639.837325142376 748.209517756016 L 1650 744 L 1639.837325142376 739.790482243984 L 1639.837325142376 748.209517756016" stroke-miterlimit="10"/></g><g transform="translate(-46,-22) scale(1,1)"><g><path fill="none" stroke="none"/><text fill="#000000" stroke="none" font-family="Arial" font-size="18px" font-style="normal" font-weight="normal" text-decoration="none" x="1311.5" y="732.5">No</text></g></g><g transform="translate(-46,-22) scale(1,1)"><path fill="#6dceff" stroke="none" d="M 968 557.5 L 1049.5 504 L 1131 557.5 L 1049.5 611 L 968 557.5"/></g><g transform="translate(-46,-22) scale(1,1)"><path fill="none" stroke="#000000" d="M 968 557.5 L 1049.5 504 L 1131 557.5 L 1049.5 611 L 968 557.5 L 968 557.5" stroke-miterlimit="10"/></g><g transform="translate(-46,-22) scale(1,1)"><g><path fill="none" stroke="none"/><text fill="#000000" stroke="none" font-family="Arial" font-size="18px" font-style="normal" font-weight="normal" text-decoration="none" x="1031" y="545.5">Stop</text>
		<text fill="#000000" stroke="none" font-family="Arial" font-size="18px" font-style="normal" font-weight="normal" text-decoration="none" x="1025.5" y="563.5">Route</text>
		<text fill="#000000" stroke="none" font-family="Arial" font-size="18px" font-style="normal" font-weight="normal" text-decoration="none" x="1008.5" y="582">Recording</text></g></g><g transform="translate(-46,-22) scale(1,1)"><path fill="none" stroke="#000000" d="M 792 504 L 792 552 M 792 552 A 8 8 0 0 0 800 560 L 968 560" stroke-miterlimit="10"/></g><g transform="translate(-46,-22) scale(1,1)"><path fill="#000000" stroke="none" d="M 957.8373251423759 564.209517756016 L 968 560 L 957.8373251423758 555.790482243984"/></g><g transform="translate(-46,-22) scale(1,1)"><path fill="none" stroke="#000000" d="M 957.8373251423759 564.209517756016 L 968 560 L 957.8373251423758 555.790482243984 L 957.8373251423759 564.209517756016" stroke-miterlimit="10"/></g><g transform="translate(-46,-22) scale(1,1)"><path fill="none" stroke="#000000" d="M 861 784 L 976 784 M 976 784 A 8 8 0 0 1 984 792 L 984 976" stroke-miterlimit="10"/></g><g transform="translate(-46,-22) scale(1,1)"><path fill="#000000" stroke="none" d="M 979.790482243984 965.8373251423759 L 984 976 L 988.209517756016 965.8373251423759"/></g><g transform="translate(-46,-22) scale(1,1)"><path fill="none" stroke="#000000" d="M 979.790482243984 965.8373251423759 L 984 976 L 988.209517756016 965.8373251423759 L 979.790482243984 965.8373251423759" stroke-miterlimit="10"/></g><g transform="translate(-46,-22) scale(1,1)"><g><path fill="none" stroke="none"/><text fill="#000000" stroke="none" font-family="Arial" font-size="20px" font-style="normal" font-weight="normal" text-decoration="none" x="871.5" y="773">Search for Aruco</text></g></g><g transform="translate(-46,-22) scale(1,1)"><path fill="none" stroke="#000000" d="M 1049 611 L 1049 688 M 1049 688 A 8 8 0 0 1 1041 696 L 800 696 M 800 696 A 8 8 0 0 0 792 704 L 792 728" stroke-miterlimit="10"/></g><g transform="translate(-46,-22) scale(1,1)"><path fill="#000000" stroke="none" d="M 787.790482243984 717.8373251423759 L 792 728 L 796.209517756016 717.8373251423759"/></g><g transform="translate(-46,-22) scale(1,1)"><path fill="none" stroke="#000000" d="M 787.790482243984 717.8373251423759 L 792 728 L 796.209517756016 717.8373251423759 L 787.790482243984 717.8373251423759" stroke-miterlimit="10"/></g><g transform="translate(-46,-22) scale(1,1)"><g><path fill="none" stroke="none"/><text fill="#000000" stroke="none" font-family="Arial" font-size="18px" font-style="normal" font-weight="normal" text-decoration="none" x="1012.5" y="629.5">No</text></g></g><g transform="translate(-46,-22) scale(1,1)"><rect fill="#ffdf82" stroke="none" x="1320" y="592" width="88" height="61"/></g><g transform="translate(-46,-22) scale(1,1)"><path fill="none" stroke="#000000" d="M 1320 592 L 1408 592 L 1408 653 L 1320 653 L 1320 592 Z Z" stroke-miterlimit="10"/></g><g transform="translate(-46,-22) scale(1,1)"><g><path fill="none" stroke="none"/><text fill="#000000" stroke="none" font-family="Arial" font-size="18px" font-style="normal" font-weight="normal" text-decoration="none" x="1341" y="617">Notify</text>
		<text fill="#000000" stroke="none" font-family="Arial" font-size="18px" font-style="normal" font-weight="normal" text-decoration="none" x="1345" y="634.5">User</text></g></g><g transform="translate(-46,-22) scale(1,1)"><path fill="none" stroke="#000000" d="M 1248 688 L 1248 630 M 1248 630 A 8 8 0 0 1 1256 622 L 1320 622" stroke-miterlimit="10"/></g><g transform="translate(-46,-22) scale(1,1)"><path fill="#000000" stroke="none" d="M 1309.837325142376 626.209517756016 L 1320 622 L 1309.837325142376 617.790482243984"/></g><g transform="translate(-46,-22) scale(1,1)"><path fill="none" stroke="#000000" d="M 1309.837325142376 626.209517756016 L 1320 622 L 1309.837325142376 617.790482243984 L 1309.837325142376 626.209517756016" stroke-miterlimit="10"/></g><g transform="translate(-46,-22) scale(1,1)"><g><path fill="none" stroke="none"/><text fill="#000000" stroke="none" font-family="Arial" font-size="18px" font-style="normal" font-weight="normal" text-decoration="none" x="1207.5" y="685.5">Yes</text></g></g><g transform="translate(-46,-22) scale(1,1)"><path fill="none" stroke="#000000" d="M 1368 592 L 1368 461" stroke-miterlimit="10"/></g><g transform="translate(-46,-22) scale(1,1)"><path fill="#000000" stroke="none" d="M 1372.2095177560159 471.16267485762415 L 1368 461 L 1363.7904822439841 471.16267485762415"/></g><g transform="translate(-46,-22) scale(1,1)"><path fill="none" stroke="#000000" d="M 1372.2095177560159 471.16267485762415 L 1368 461 L 1363.7904822439841 471.16267485762415 L 1372.2095177560159 471.16267485762415" stroke-miterlimit="10"/></g><g transform="translate(-46,-22) scale(1,1)"><path fill="none" stroke="#000000" d="M 1131 560 L 1240 560 M 1240 560 A 8 8 0 0 0 1248 552 L 1248 456 M 1248 456 A 8 8 0 0 1 1256 448 L 1352 448" stroke-miterlimit="10"/></g><g transform="translate(-46,-22) scale(1,1)"><path fill="#000000" stroke="none" d="M 1341.837325142376 452.209517756016 L 1352 448 L 1341.837325142376 443.790482243984"/></g><g transform="translate(-46,-22) scale(1,1)"><path fill="none" stroke="#000000" d="M 1341.837325142376 452.209517756016 L 1352 448 L 1341.837325142376 443.790482243984 L 1341.837325142376 452.209517756016" stroke-miterlimit="10"/></g><g transform="translate(-46,-22) scale(1,1)"><g><path fill="none" stroke="none"/><text fill="#000000" stroke="none" font-family="Arial" font-size="18px" font-style="normal" font-weight="normal" text-decoration="none" x="1135.5" y="541.5">Yes</text></g></g><g transform="translate(-46,-22) scale(1,1)"><path fill="#6dceff" stroke="none" d="M 648 1367.5 L 736 1288 L 824 1367.5 L 736 1447 L 648 1367.5"/></g><g transform="translate(-46,-22) scale(1,1)"><path fill="none" stroke="#000000" d="M 648 1367.5 L 736 1288 L 824 1367.5 L 736 1447 L 648 1367.5 L 648 1367.5" stroke-miterlimit="10"/></g><g transform="translate(-46,-22) scale(1,1)"><g><path fill="none" stroke="none"/><text fill="#000000" stroke="none" font-family="Arial" font-size="20px" font-style="normal" font-weight="normal" text-decoration="none" x="713.5" y="1345">Send</text>
		<text fill="#000000" stroke="none" font-family="Arial" font-size="20px" font-style="normal" font-weight="normal" text-decoration="none" x="696" y="1365">Step Info</text>
		<text fill="#000000" stroke="none" font-family="Arial" font-size="20px" font-style="normal" font-weight="normal" text-decoration="none" x="695.5" y="1385">to Mobile</text>
		<text fill="#000000" stroke="none" font-family="Arial" font-size="20px" font-style="normal" font-weight="normal" text-decoration="none" x="708.5" y="1405">Phone</text></g></g><g transform="translate(-46,-22) scale(1,1)"><path fill="none" stroke="#000000" d="M 736 1447 L 736 1488 L 854 1488 L 854 1367 L 824 1367" stroke-miterlimit="10"/></g><g transform="translate(-46,-22) scale(1,1)"><path fill="#000000" stroke="none" d="M 834.1626748576241 1362.7904822439841 L 824 1367 L 834.1626748576241 1371.2095177560159"/></g><g transform="translate(-46,-22) scale(1,1)"><path fill="none" stroke="#000000" d="M 834.1626748576241 1362.7904822439841 L 824 1367 L 834.1626748576241 1371.2095177560159 L 834.1626748576241 1362.7904822439841" stroke-miterlimit="10"/></g><g transform="translate(-46,-22) scale(1,1)"><g><path fill="none" stroke="none"/><text fill="#000000" stroke="none" font-family="Arial" font-size="18px" font-style="normal" font-weight="normal" text-decoration="none" x="743.5" y="1460">Fail</text></g></g><g transform="translate(-46,-22) scale(1,1)"><path fill="none" stroke="#000000" d="M 208 1049 L 208 1136 M 208 1136 A 8 8 0 0 0 216 1144 L 448 1144 M 448 1144 A 8 8 0 0 1 456 1152 L 456 1224 M 456 1224 A 8 8 0 0 0 464 1232 L 728 1232 M 728 1232 A 8 8 0 0 1 736 1240 L 736 1288" stroke-miterlimit="10"/></g><g transform="translate(-46,-22) scale(1,1)"><path fill="#000000" stroke="none" d="M 731.790482243984 1277.837325142376 L 736 1288 L 740.209517756016 1277.837325142376"/></g><g transform="translate(-46,-22) scale(1,1)"><path fill="none" stroke="#000000" d="M 731.790482243984 1277.837325142376 L 736 1288 L 740.209517756016 1277.837325142376 L 731.790482243984 1277.837325142376" stroke-miterlimit="10"/></g><g transform="translate(-46,-22) scale(1,1)"><path fill="none" stroke="#000000" d="M 456 1050 L 456 1224 M 456 1224 A 8 8 0 0 0 464 1232 L 728 1232 M 728 1232 A 8 8 0 0 1 736 1240 L 736 1288" stroke-miterlimit="10"/></g><g transform="translate(-46,-22) scale(1,1)"><path fill="#000000" stroke="none" d="M 731.790482243984 1277.837325142376 L 736 1288 L 740.209517756016 1277.837325142376"/></g><g transform="translate(-46,-22) scale(1,1)"><path fill="none" stroke="#000000" d="M 731.790482243984 1277.837325142376 L 736 1288 L 740.209517756016 1277.837325142376 L 731.790482243984 1277.837325142376" stroke-miterlimit="10"/></g><g transform="translate(-46,-22) scale(1,1)"><path fill="none" stroke="#000000" d="M 712 1049 L 712 1136 M 712 1136 A 8 8 0 0 1 704 1144 L 464 1144 M 464 1144 A 8 8 0 0 0 456 1152 L 456 1224 M 456 1224 A 8 8 0 0 0 464 1232 L 728 1232 M 728 1232 A 8 8 0 0 1 736 1240 L 736 1288" stroke-miterlimit="10"/></g><g transform="translate(-46,-22) scale(1,1)"><path fill="#000000" stroke="none" d="M 731.790482243984 1277.837325142376 L 736 1288 L 740.209517756016 1277.837325142376"/></g><g transform="translate(-46,-22) scale(1,1)"><path fill="none" stroke="#000000" d="M 731.790482243984 1277.837325142376 L 736 1288 L 740.209517756016 1277.837325142376 L 731.790482243984 1277.837325142376" stroke-miterlimit="10"/></g><g transform="translate(-46,-22) scale(1,1)"><path fill="none" stroke="#000000" d="M 962 1049 L 962 1224 M 962 1224 A 8 8 0 0 1 954 1232 L 744 1232 M 744 1232 A 8 8 0 0 0 736 1240 L 736 1288" stroke-miterlimit="10"/></g><g transform="translate(-46,-22) scale(1,1)"><path fill="#000000" stroke="none" d="M 731.790482243984 1277.837325142376 L 736 1288 L 740.209517756016 1277.837325142376"/></g><g transform="translate(-46,-22) scale(1,1)"><path fill="none" stroke="#000000" d="M 731.790482243984 1277.837325142376 L 736 1288 L 740.209517756016 1277.837325142376 L 731.790482243984 1277.837325142376" stroke-miterlimit="10"/></g><g transform="translate(-46,-22) scale(1,1)"><path fill="none" stroke="#000000" d="M 648 1368 L 120 1368 M 120 1368 A 8 8 0 0 1 112 1360 L 112 736 M 112 736 A 8 8 0 0 1 120 728 L 496 728 M 496 728 A 8 8 0 0 0 504 720 L 504 496 M 504 496 A 8 8 0 0 1 512 488 L 776 488" stroke-miterlimit="10"/></g><g transform="translate(-46,-22) scale(1,1)"><path fill="#000000" stroke="none" d="M 765.8373251423759 492.209517756016 L 776 488 L 765.8373251423758 483.790482243984"/></g><g transform="translate(-46,-22) scale(1,1)"><path fill="none" stroke="#000000" d="M 765.8373251423759 492.209517756016 L 776 488 L 765.8373251423758 483.790482243984 L 765.8373251423759 492.209517756016" stroke-miterlimit="10"/></g><g transform="translate(-46,-22) scale(1,1)"><g><path fill="none" stroke="none"/><text fill="#000000" stroke="none" font-family="Arial" font-size="18px" font-style="normal" font-weight="normal" text-decoration="none" x="582.5" y="1354.5">Success</text></g></g><g transform="translate(-46,-22) scale(1,1)"><path fill="none" stroke="#000000" d="M 2112 1648 L 64 1648 M 64 1648 A 8 8 0 0 1 56 1640 L 56 256 M 56 256 A 8 8 0 0 1 64 248 L 105 248" stroke-miterlimit="10"/></g><g transform="translate(-46,-22) scale(1,1)"><path fill="#000000" stroke="none" d="M 94.83732514237585 252.209517756016 L 105 248 L 94.83732514237585 243.790482243984"/></g><g transform="translate(-46,-22) scale(1,1)"><path fill="none" stroke="#000000" d="M 94.83732514237585 252.209517756016 L 105 248 L 94.83732514237585 243.790482243984 L 94.83732514237585 252.209517756016" stroke-miterlimit="10"/></g><g transform="translate(-46,-22) scale(1,1)"><g><path fill="none" stroke="none"/><text fill="#000000" stroke="none" font-family="Arial" font-size="18px" font-style="normal" font-weight="normal" text-decoration="none" x="71.5" y="1637">Return to Initial State</text></g></g>
</svg>